<svg xmlns="http://www.w3.org/2000/svg" width="900" height="900" viewBox="0 0 900 900">
  <g fill="none" stroke="#ede4d8" stroke-width="1.2" opacity="0.55">
    <path d="M120 140c90 20 160 90 180 180" />
    <path d="M200 180c40 70 40 150 0 220" />
    <path d="M260 120c90 10 150 70 170 150" />
    <path d="M620 180c-90 20-160 90-180 180" />
    <path d="M700 220c-40 70-40 150 0 220" />
    <path d="M640 120c-90 10-150 70-170 150" />
    <path d="M180 620c70-10 120-60 140-130" />
    <path d="M260 700c20-60 70-100 130-120" />
    <path d="M720 620c-70-10-120-60-140-130" />
    <path d="M640 700c-20-60-70-100-130-120" />
  </g>
</svg>