<?xml version="1.0" encoding="UTF-8" standalone="no"?>
<!-- Created with Inkscape (http://www.inkscape.org/) -->

<svg
   xmlns:dc="http://purl.org/dc/elements/1.1/"
   xmlns:cc="http://creativecommons.org/ns#"
   xmlns:rdf="http://www.w3.org/1999/02/22-rdf-syntax-ns#"
   xmlns:svg="http://www.w3.org/2000/svg"
   xmlns="http://www.w3.org/2000/svg"
   xmlns:xlink="http://www.w3.org/1999/xlink"
   xmlns:sodipodi="http://sodipodi.sourceforge.net/DTD/sodipodi-0.dtd"
   xmlns:inkscape="http://www.inkscape.org/namespaces/inkscape"
   width="1668.0433"
   height="490.29764"
   id="svg2"
   version="1.1"
   inkscape:version="0.48.5 r10040"
   sodipodi:docname="Banco_Guayaquil_(2014).svg">
  <defs
     id="defs4">
    <linearGradient
       id="linearGradient4081">
      <stop
         id="stop4083"
         offset="0"
         style="stop-color:#25e5cc;stop-opacity:1;" />
      <stop
         id="stop4085"
         offset="1"
         style="stop-color:#255dcc;stop-opacity:1;" />
    </linearGradient>
    <linearGradient
       id="linearGradient4053">
      <stop
         id="stop4055"
         offset="0"
         style="stop-color:#258bcc;stop-opacity:1;" />
      <stop
         id="stop4057"
         offset="1"
         style="stop-color:#25388b;stop-opacity:0.47115386" />
    </linearGradient>
    <linearGradient
       id="linearGradient4035">
      <stop
         style="stop-color:#258bcc;stop-opacity:1;"
         offset="0"
         id="stop4037" />
      <stop
         style="stop-color:#255dcc;stop-opacity:1;"
         offset="1"
         id="stop4039" />
    </linearGradient>
    <linearGradient
       id="linearGradient4027">
      <stop
         style="stop-color:#1664af;stop-opacity:1;"
         offset="0"
         id="stop4029" />
      <stop
         style="stop-color:#1664e7;stop-opacity:1;"
         offset="1"
         id="stop4031" />
    </linearGradient>
    <linearGradient
       id="linearGradient4019">
      <stop
         style="stop-color:#a90d3c;stop-opacity:1;"
         offset="0"
         id="stop4021" />
      <stop
         style="stop-color:#c52c65;stop-opacity:1;"
         offset="1"
         id="stop4023" />
    </linearGradient>
    <radialGradient
       inkscape:collect="always"
       xlink:href="#linearGradient4081"
       id="radialGradient4049"
       cx="401.67188"
       cy="457.125"
       fx="401.67188"
       fy="457.125"
       r="130.54688"
       gradientTransform="matrix(-1.0854651,-0.16363577,0.27682267,-1.8362814,895.1301,1362.2631)"
       gradientUnits="userSpaceOnUse" />
    <radialGradient
       inkscape:collect="always"
       xlink:href="#linearGradient4019"
       id="radialGradient4077"
       gradientUnits="userSpaceOnUse"
       gradientTransform="matrix(0.45072334,-1.5420971,0.61126167,0.17865925,386.85869,911.90488)"
       cx="226.59737"
       cy="102.66402"
       fx="226.59737"
       fy="102.66402"
       r="212.8125" />
    <radialGradient
       inkscape:collect="always"
       xlink:href="#linearGradient4035"
       id="radialGradient4079"
       gradientUnits="userSpaceOnUse"
       gradientTransform="matrix(-0.99543427,-0.09544953,0.08055381,-0.84008814,450.08614,745.28388)"
       cx="241.41965"
       cy="392.91623"
       fx="241.41965"
       fy="392.91623"
       r="212.8125" />
    <radialGradient
       inkscape:collect="always"
       xlink:href="#linearGradient4035"
       id="radialGradient4089"
       gradientUnits="userSpaceOnUse"
       gradientTransform="matrix(-0.99543427,-0.09544953,0.08055381,-0.84008814,634.08614,745.28388)"
       cx="241.41965"
       cy="392.91623"
       fx="241.41965"
       fy="392.91623"
       r="212.8125" />
    <radialGradient
       inkscape:collect="always"
       xlink:href="#linearGradient4019"
       id="radialGradient4091"
       gradientUnits="userSpaceOnUse"
       gradientTransform="matrix(0.45072334,-1.5420971,0.61126167,0.17865925,570.85869,911.90488)"
       cx="226.59737"
       cy="102.66402"
       fx="226.59737"
       fy="102.66402"
       r="212.8125" />
    <radialGradient
       inkscape:collect="always"
       xlink:href="#linearGradient4019"
       id="radialGradient4148"
       gradientUnits="userSpaceOnUse"
       gradientTransform="matrix(0.45072334,-1.5420971,0.61126167,0.17865925,386.85869,911.90488)"
       cx="226.59737"
       cy="102.66402"
       fx="226.59737"
       fy="102.66402"
       r="212.8125" />
    <radialGradient
       inkscape:collect="always"
       xlink:href="#linearGradient4035"
       id="radialGradient4150"
       gradientUnits="userSpaceOnUse"
       gradientTransform="matrix(-0.99543427,-0.09544953,0.08055381,-0.84008814,450.08614,745.28388)"
       cx="241.41965"
       cy="392.91623"
       fx="241.41965"
       fy="392.91623"
       r="212.8125" />
    <radialGradient
       inkscape:collect="always"
       xlink:href="#linearGradient4035"
       id="radialGradient4152"
       gradientUnits="userSpaceOnUse"
       gradientTransform="matrix(-0.99543427,-0.09544953,0.08055381,-0.84008814,634.08614,745.28388)"
       cx="241.41965"
       cy="392.91623"
       fx="241.41965"
       fy="392.91623"
       r="212.8125" />
    <radialGradient
       inkscape:collect="always"
       xlink:href="#linearGradient4019"
       id="radialGradient4154"
       gradientUnits="userSpaceOnUse"
       gradientTransform="matrix(0.45072334,-1.5420971,0.61126167,0.17865925,570.85869,911.90488)"
       cx="226.59737"
       cy="102.66402"
       fx="226.59737"
       fy="102.66402"
       r="212.8125" />
    <radialGradient
       inkscape:collect="always"
       xlink:href="#linearGradient4081"
       id="radialGradient4156"
       gradientUnits="userSpaceOnUse"
       gradientTransform="matrix(-1.0854651,-0.16363577,0.27682267,-1.8362814,895.1301,1362.2631)"
       cx="401.67188"
       cy="457.125"
       fx="401.67188"
       fy="457.125"
       r="130.54688" />
  </defs>
  <sodipodi:namedview
     id="base"
     pagecolor="#ffffff"
     bordercolor="#666666"
     borderopacity="1.0"
     inkscape:pageopacity="0.0"
     inkscape:pageshadow="2"
     inkscape:zoom="0.1767767"
     inkscape:cx="483.44145"
     inkscape:cy="218.20997"
     inkscape:document-units="px"
     inkscape:current-layer="layer1"
     showgrid="false"
     fit-margin-top="0"
     fit-margin-left="0"
     fit-margin-right="0"
     fit-margin-bottom="0"
     showguides="true"
     inkscape:guide-bbox="true"
     inkscape:window-width="1366"
     inkscape:window-height="705"
     inkscape:window-x="-8"
     inkscape:window-y="-8"
     inkscape:window-maximized="1">
    <sodipodi:guide
       orientation="1,0"
       position="245.51266,576.26786"
       id="guide4093" />
  </sodipodi:namedview>
  <metadata
     id="metadata7">
    <rdf:RDF>
      <cc:Work
         rdf:about="">
        <dc:format>image/svg+xml</dc:format>
        <dc:type
           rdf:resource="http://purl.org/dc/dcmitype/StillImage" />
        <dc:title></dc:title>
      </cc:Work>
    </rdf:RDF>
  </metadata>
  <g
     inkscape:label="Capa 1"
     inkscape:groupmode="layer"
     id="layer1"
     transform="translate(-358.77305,-223.63373)">
    <g
       id="g4126"
       transform="translate(9.223216,32.72601)">
      <g
         transform="matrix(0.95325557,0.30216522,-0.30216522,0.95325557,334.88025,-103.78037)"
         id="g4073">
        <path
           id="path4015"
           d="m 587.76829,265.63305 c -1.26282,-0.74477 -2.50072,-1.53258 -3.78125,-2.25 -3.18496,-1.78437 -6.42851,-3.48293 -9.71875,-5.09375 -3.29024,-1.61082 -6.61063,-3.13141 -10,-4.5625 -3.38937,-1.43109 -6.83015,-2.78606 -10.3125,-4.03125 -3.48235,-1.24519 -7.02458,-2.3844 -10.59375,-3.4375 -3.56917,-1.0531 -7.16265,-2.02016 -10.8125,-2.875 -3.64985,-0.85484 -7.33813,-1.5996 -11.0625,-2.25 -3.72437,-0.6504 -7.48852,-1.18522 -11.28125,-1.625 -3.79273,-0.43978 -7.6138,-0.77702 -11.46875,-1 -3.85495,-0.22298 -7.74524,-0.34375 -11.65625,-0.34375 -3.4284,0 -6.83298,0.0784 -10.21875,0.25 -3.38577,0.17164 -6.75478,0.44212 -10.09375,0.78125 -3.33897,0.33913 -6.64948,0.74755 -9.9375,1.25 -3.28802,0.50245 -6.54834,1.08839 -9.78125,1.75 -6.46581,1.32322 -12.81087,2.97136 -19.03125,4.90625 -6.22038,1.93489 -12.30835,4.17424 -18.25,6.6875 -5.94165,2.51326 -11.74537,5.28541 -17.375,8.34375 -5.62963,3.05834 -11.09068,6.39863 -16.375,9.96875 -5.28432,3.57012 -10.40679,7.38889 -15.3125,11.4375 -4.90571,4.04861 -9.59994,8.31869 -14.09375,12.8125 -4.49381,4.49381 -8.76389,9.18804 -12.8125,14.09375 -4.04861,4.90571 -7.86738,10.02818 -11.4375,15.3125 -3.57012,5.28432 -6.91041,10.74537 -9.96875,16.375 -3.05834,5.62963 -5.83049,11.43335 -8.34375,17.375 -2.51326,5.94165 -4.75261,12.02962 -6.6875,18.25 -1.93489,6.22038 -3.58303,12.56544 -4.90625,19.03125 -0.66161,3.23291 -1.24755,6.49323 -1.75,9.78125 -0.47873,3.13278 -0.85695,6.28962 -1.1875,9.46875 9.46857,-58.72547 60.2547,-103.59375 121.65625,-103.59375 68.13722,0 123.375,55.20653 123.375,123.34375 0,0.41114 -0.0585,0.80856 -0.0625,1.21875 l 0.5,0 c -0.054,3.38179 -0.18538,6.75505 -0.40625,10.09375 -0.22087,3.3387 -0.52253,6.64593 -0.90625,9.9375 -0.76745,6.58314 -1.85532,13.0671 -3.25,19.4375 -1.39468,6.3704 -3.10408,12.62465 -5.09375,18.75 -1.98967,6.12535 -4.2601,12.12075 -6.8125,17.96875 -2.5524,5.848 -5.38588,11.5554 -8.46875,17.09375 -3.08287,5.53835 -6.41891,10.89736 -10,16.09375 -3.58109,5.19639 -7.42169,10.20913 -11.46875,15.03125 -4.04706,4.82212 -8.30048,9.45945 -12.78125,13.875 -4.48077,4.41555 -9.18028,8.61707 -14.0625,12.59375 -4.88222,3.97668 -9.96733,7.7445 -15.21875,11.25 -5.25142,3.5055 -10.66163,6.74799 -16.25,9.75 -5.58837,3.00201 -11.32569,5.75253 -17.21875,8.21875 -5.89306,2.46622 -11.9595,4.66438 -18.125,6.5625 -6.1655,1.89812 -12.43806,3.48353 -18.84375,4.78125 -6.40569,1.29772 -12.91764,2.30374 -19.53125,2.96875 -3.30681,0.33251 -6.64726,0.58173 -10,0.75 -3.35274,0.16827 -6.73036,0.25 -10.125,0.25 -6.19757,0 -12.32245,-0.2885 -18.375,-0.84375 -6.05255,-0.55525 -12.02327,-1.38282 -17.90625,-2.46875 -5.88298,-1.08593 -11.68616,-2.4392 -17.375,-4.03125 -5.68884,-1.59205 -11.27985,-3.4264 -16.75,-5.5 -5.47015,-2.0736 -10.80434,-4.37565 -16.03125,-6.90625 -5.22691,-2.5306 -10.3534,-5.28697 -15.3125,-8.25 -1.48225,-0.88563 -2.8556,-1.92091 -4.3125,-2.84375 44.82215,48.57654 109.00443,79.03125 180.3125,79.03125 135.48293,0 245.3125,-109.82956 245.3125,-245.3125 0,-65.8509 -25.9918,-125.5915 -68.21875,-169.65625 z"
           style="fill:url(#radialGradient4148);fill-opacity:1;stroke:none"
           inkscape:connector-curvature="0" />
        <path
           inkscape:connector-curvature="0"
           id="path4069"
           d="m 233.96875,605.90625 c 1.26282,0.74477 2.50072,1.53258 3.78125,2.25 3.18496,1.78437 6.42851,3.48293 9.71875,5.09375 3.29024,1.61082 6.61063,3.13141 10,4.5625 3.38937,1.43109 6.83015,2.78606 10.3125,4.03125 3.48235,1.24519 7.02458,2.3844 10.59375,3.4375 3.56917,1.0531 7.16265,2.02016 10.8125,2.875 3.64985,0.85484 7.33813,1.5996 11.0625,2.25 3.72437,0.6504 7.48852,1.18522 11.28125,1.625 3.79273,0.43978 7.6138,0.77702 11.46875,1 3.85495,0.22298 7.74524,0.34375 11.65625,0.34375 3.4284,0 6.83298,-0.0784 10.21875,-0.25 3.38577,-0.17164 6.75478,-0.44212 10.09375,-0.78125 3.33897,-0.33913 6.64948,-0.74755 9.9375,-1.25 3.28802,-0.50245 6.54834,-1.08839 9.78125,-1.75 6.46581,-1.32322 12.81087,-2.97136 19.03125,-4.90625 6.22038,-1.93489 12.30835,-4.17424 18.25,-6.6875 5.94165,-2.51326 11.74537,-5.28541 17.375,-8.34375 5.62963,-3.05834 11.09068,-6.39863 16.375,-9.96875 5.28432,-3.57012 10.40679,-7.38889 15.3125,-11.4375 4.90571,-4.04861 9.59994,-8.31869 14.09375,-12.8125 4.49381,-4.49381 8.76389,-9.18804 12.8125,-14.09375 4.04861,-4.90571 7.86738,-10.02818 11.4375,-15.3125 3.57012,-5.28432 6.91041,-10.74537 9.96875,-16.375 3.05834,-5.62963 5.83049,-11.43335 8.34375,-17.375 2.51326,-5.94165 4.75261,-12.02962 6.6875,-18.25 1.93489,-6.22038 3.58303,-12.56544 4.90625,-19.03125 0.66161,-3.23291 1.24755,-6.49323 1.75,-9.78125 0.47873,-3.13278 0.85695,-6.28962 1.1875,-9.46875 -9.46857,58.72547 -60.2547,103.59375 -121.65625,103.59375 -68.13722,0 -123.375,-55.20653 -123.375,-123.34375 0,-0.41114 0.0585,-0.80856 0.0625,-1.21875 l -0.5,0 c 0.054,-3.38179 0.18538,-6.75505 0.40625,-10.09375 0.22087,-3.3387 0.52253,-6.64593 0.90625,-9.9375 0.76745,-6.58314 1.85532,-13.0671 3.25,-19.4375 1.39468,-6.3704 3.10408,-12.62465 5.09375,-18.75 1.98967,-6.12535 4.2601,-12.12075 6.8125,-17.96875 2.5524,-5.848 5.38588,-11.5554 8.46875,-17.09375 3.08287,-5.53835 6.41891,-10.89736 10,-16.09375 3.58109,-5.19639 7.42169,-10.20913 11.46875,-15.03125 4.04706,-4.82212 8.30048,-9.45945 12.78125,-13.875 4.48077,-4.41555 9.18028,-8.61707 14.0625,-12.59375 4.88222,-3.97668 9.96733,-7.7445 15.21875,-11.25 5.25142,-3.5055 10.66163,-6.74799 16.25,-9.75 5.58837,-3.00201 11.32569,-5.75253 17.21875,-8.21875 5.89306,-2.46622 11.9595,-4.66438 18.125,-6.5625 6.1655,-1.89812 12.43806,-3.48353 18.84375,-4.78125 6.40569,-1.29772 12.91764,-2.30374 19.53125,-2.96875 3.30681,-0.33251 6.64726,-0.58173 10,-0.75 3.35274,-0.16827 6.73036,-0.25 10.125,-0.25 6.19757,0 12.32245,0.2885 18.375,0.84375 6.05255,0.55525 12.02327,1.38282 17.90625,2.46875 5.88298,1.08593 11.68616,2.4392 17.375,4.03125 5.68884,1.59205 11.27985,3.4264 16.75,5.5 5.47015,2.0736 10.80434,4.37565 16.03125,6.90625 5.22691,2.5306 10.3534,5.28697 15.3125,8.25 1.48225,0.88563 2.8556,1.92091 4.3125,2.84375 C 546.55285,221.39221 482.37057,190.9375 411.0625,190.9375 275.57957,190.9375 165.75,300.76706 165.75,436.25 c 0,65.8509 25.9918,125.5915 68.21875,169.65625 z"
           style="fill:url(#radialGradient4150);fill-opacity:1;stroke:none" />
      </g>
      <path
         inkscape:connector-curvature="0"
         id="path3808"
         d="m 417.96875,605.90625 c 1.26282,0.74477 2.50072,1.53258 3.78125,2.25 3.18496,1.78437 6.42851,3.48293 9.71875,5.09375 3.29024,1.61082 6.61063,3.13141 10,4.5625 3.38937,1.43109 6.83015,2.78606 10.3125,4.03125 3.48235,1.24519 7.02458,2.3844 10.59375,3.4375 3.56917,1.0531 7.16265,2.02016 10.8125,2.875 3.64985,0.85484 7.33813,1.5996 11.0625,2.25 3.72437,0.6504 7.48852,1.18522 11.28125,1.625 3.79273,0.43978 7.6138,0.77702 11.46875,1 3.85495,0.22298 7.74524,0.34375 11.65625,0.34375 3.4284,0 6.83298,-0.0784 10.21875,-0.25 3.38577,-0.17164 6.75478,-0.44212 10.09375,-0.78125 3.33897,-0.33913 6.64948,-0.74755 9.9375,-1.25 3.28802,-0.50245 6.54834,-1.08839 9.78125,-1.75 6.46581,-1.32322 12.81087,-2.97136 19.03125,-4.90625 6.22038,-1.93489 12.30835,-4.17424 18.25,-6.6875 5.94165,-2.51326 11.74537,-5.28541 17.375,-8.34375 5.62963,-3.05834 11.09068,-6.39863 16.375,-9.96875 5.28432,-3.57012 10.40679,-7.38889 15.3125,-11.4375 4.90571,-4.04861 9.59994,-8.31869 14.09375,-12.8125 4.49381,-4.49381 8.76389,-9.18804 12.8125,-14.09375 4.04861,-4.90571 7.86738,-10.02818 11.4375,-15.3125 3.57012,-5.28432 6.91041,-10.74537 9.96875,-16.375 3.05834,-5.62963 5.83049,-11.43335 8.34375,-17.375 2.51326,-5.94165 4.75261,-12.02962 6.6875,-18.25 1.93489,-6.22038 3.58303,-12.56544 4.90625,-19.03125 0.66161,-3.23291 1.24755,-6.49323 1.75,-9.78125 0.47873,-3.13278 0.85695,-6.28962 1.1875,-9.46875 -9.46857,58.72547 -60.2547,103.59375 -121.65625,103.59375 -68.13722,0 -123.375,-55.20653 -123.375,-123.34375 0,-0.41114 0.0585,-0.80856 0.0625,-1.21875 l -0.5,0 c 0.054,-3.38179 0.18538,-6.75505 0.40625,-10.09375 0.22087,-3.3387 0.52253,-6.64593 0.90625,-9.9375 0.76745,-6.58314 1.85532,-13.0671 3.25,-19.4375 1.39468,-6.3704 3.10408,-12.62465 5.09375,-18.75 1.98967,-6.12535 4.2601,-12.12075 6.8125,-17.96875 2.5524,-5.848 5.38588,-11.5554 8.46875,-17.09375 3.08287,-5.53835 6.41891,-10.89736 10,-16.09375 3.58109,-5.19639 7.42169,-10.20913 11.46875,-15.03125 4.04706,-4.82212 8.30048,-9.45945 12.78125,-13.875 4.48077,-4.41555 9.18028,-8.61707 14.0625,-12.59375 4.88222,-3.97668 9.96733,-7.7445 15.21875,-11.25 5.25142,-3.5055 10.66163,-6.74799 16.25,-9.75 5.58837,-3.00201 11.32569,-5.75253 17.21875,-8.21875 5.89306,-2.46622 11.9595,-4.66438 18.125,-6.5625 6.1655,-1.89812 12.43806,-3.48353 18.84375,-4.78125 6.40569,-1.29772 12.91764,-2.30374 19.53125,-2.96875 3.30681,-0.33251 6.64726,-0.58173 10,-0.75 3.35274,-0.16827 6.73036,-0.25 10.125,-0.25 6.19757,0 12.32245,0.2885 18.375,0.84375 6.05255,0.55525 12.02327,1.38282 17.90625,2.46875 5.88298,1.08593 11.68616,2.4392 17.375,4.03125 5.68884,1.59205 11.27985,3.4264 16.75,5.5 5.47015,2.0736 10.80434,4.37565 16.03125,6.90625 5.22691,2.5306 10.3534,5.28697 15.3125,8.25 1.48225,0.88563 2.8556,1.92091 4.3125,2.84375 C 730.55285,221.39221 666.37057,190.9375 595.0625,190.9375 459.57957,190.9375 349.75,300.76706 349.75,436.25 c 0,65.8509 25.9918,125.5915 68.21875,169.65625 z"
         style="fill:url(#radialGradient4152);fill-opacity:1;stroke:none" />
      <path
         inkscape:connector-curvature="0"
         id="path3932"
         d="m 713.96875,466.34375 c 0.48814,-1.90946 1.0709,-3.77476 1.46875,-5.71875 0.33557,-1.63966 0.51146,-3.33731 0.78125,-5 0.004,-0.0413 -0.004,-0.0837 0,-0.125 -0.59179,3.67034 -1.34292,7.28924 -2.25,10.84375 z"
         style="fill:#000080;stroke:none" />
      <path
         inkscape:connector-curvature="0"
         id="path3930"
         d="m 706.75,486.875 c 0.47652,-1.04364 1.05198,-2.03474 1.5,-3.09375 1.5608,-3.68935 2.95464,-7.48113 4.15625,-11.34375 0.61985,-1.99252 1.0424,-4.05928 1.5625,-6.09375 -1.81417,7.10902 -4.23334,13.9764 -7.21875,20.53125 z"
         style="fill:#000080;stroke:none" />
      <path
         inkscape:connector-curvature="0"
         id="path3928"
         d="m 676.375,527.90625 c 1.82827,-1.62345 3.70888,-3.20949 5.4375,-4.9375 2.79082,-2.78985 5.42317,-5.70431 7.9375,-8.75 2.51433,-3.04569 4.90784,-6.21911 7.125,-9.5 2.21716,-3.28089 4.25694,-6.66081 6.15625,-10.15625 1.35412,-2.49209 2.53519,-5.09534 3.71875,-7.6875 -7.17491,15.75342 -17.6138,29.66934 -30.375,41.03125 z"
         style="fill:#000080;stroke:none" />
      <path
         inkscape:connector-curvature="0"
         id="path3926"
         d="m 669.28125,533.75 c 1.24225,-0.94821 2.54548,-1.81882 3.75,-2.8125 0.50012,-0.41258 0.94404,-0.89224 1.4375,-1.3125 -1.67832,1.43289 -3.43311,2.78257 -5.1875,4.125 z"
         style="fill:#000080;stroke:none" />
      <path
         inkscape:connector-curvature="0"
         id="path3924"
         d="m 660.28125,540 c 1.07117,-0.67638 2.20144,-1.26064 3.25,-1.96875 0.56225,-0.37969 1.0694,-0.83009 1.625,-1.21875 -1.58506,1.1115 -3.23636,2.15005 -4.875,3.1875 z"
         style="fill:#000080;stroke:none" />
      <path
         inkscape:connector-curvature="0"
         id="path3922"
         d="m 650.59375,545.5625 c 0.91607,-0.46809 1.87861,-0.85362 2.78125,-1.34375 0.8083,-0.43891 1.54648,-0.98118 2.34375,-1.4375 -1.68715,0.96814 -3.38879,1.89195 -5.125,2.78125 z"
         style="fill:#000080;stroke:none" />
      <path
         inkscape:connector-curvature="0"
         id="path3920"
         d="m 640.1875,550.28125 c 0.79019,-0.31487 1.6242,-0.54437 2.40625,-0.875 0.94399,-0.39909 1.81819,-0.92201 2.75,-1.34375 -1.70275,0.77227 -3.41308,1.5228 -5.15625,2.21875 z"
         style="fill:#000080;stroke:none" />
      <path
         inkscape:connector-curvature="0"
         id="path3918"
         d="m 629.3125,554.0625 c 0.63821,-0.18707 1.30363,-0.30294 1.9375,-0.5 1.24562,-0.38724 2.4279,-0.91845 3.65625,-1.34375 -1.84999,0.64155 -3.70473,1.28912 -5.59375,1.84375 z"
         style="fill:#000080;stroke:none" />
      <path
         inkscape:connector-curvature="0"
         id="path3916"
         d="m 618.28125,556.78125 c 0.38081,-0.0741 0.7767,-0.10987 1.15625,-0.1875 1.28531,-0.26288 2.51084,-0.66625 3.78125,-0.96875 -1.64226,0.39174 -3.27031,0.83101 -4.9375,1.15625 z"
         style="fill:#000080;stroke:none" />
      <path
         inkscape:connector-curvature="0"
         id="path3914"
         d="m 606.3125,558.5 c 0.28783,-0.0272 0.58775,-0.002 0.875,-0.0312 1.42887,-0.14503 2.80472,-0.4629 4.21875,-0.65625 -1.69747,0.23255 -3.3748,0.52481 -5.09375,0.6875 z"
         style="fill:#000080;stroke:none" />
      <path
         id="path4071"
         d="m 771.76829,265.63305 c -1.26282,-0.74477 -2.50072,-1.53258 -3.78125,-2.25 -3.18496,-1.78437 -6.42851,-3.48293 -9.71875,-5.09375 -3.29024,-1.61082 -6.61063,-3.13141 -10,-4.5625 -3.38937,-1.43109 -6.83015,-2.78606 -10.3125,-4.03125 -3.48235,-1.24519 -7.02458,-2.3844 -10.59375,-3.4375 -3.56917,-1.0531 -7.16265,-2.02016 -10.8125,-2.875 -3.64985,-0.85484 -7.33813,-1.5996 -11.0625,-2.25 -3.72437,-0.6504 -7.48852,-1.18522 -11.28125,-1.625 -3.79273,-0.43978 -7.6138,-0.77702 -11.46875,-1 -3.85495,-0.22298 -7.74524,-0.34375 -11.65625,-0.34375 -3.4284,0 -6.83298,0.0784 -10.21875,0.25 -3.38577,0.17164 -6.75478,0.44212 -10.09375,0.78125 -3.33897,0.33913 -6.64948,0.74755 -9.9375,1.25 -3.28802,0.50245 -6.54834,1.08839 -9.78125,1.75 -6.46581,1.32322 -12.81087,2.97136 -19.03125,4.90625 -6.22038,1.93489 -12.30835,4.17424 -18.25,6.6875 -5.94165,2.51326 -11.74537,5.28541 -17.375,8.34375 -5.62963,3.05834 -11.09068,6.39863 -16.375,9.96875 -5.28432,3.57012 -10.40679,7.38889 -15.3125,11.4375 -4.90571,4.04861 -9.59994,8.31869 -14.09375,12.8125 -4.49381,4.49381 -8.76389,9.18804 -12.8125,14.09375 -4.04861,4.90571 -7.86738,10.02818 -11.4375,15.3125 -3.57012,5.28432 -6.91041,10.74537 -9.96875,16.375 -3.05834,5.62963 -5.83049,11.43335 -8.34375,17.375 -2.51326,5.94165 -4.75261,12.02962 -6.6875,18.25 -1.93489,6.22038 -3.58303,12.56544 -4.90625,19.03125 -0.66161,3.23291 -1.24755,6.49323 -1.75,9.78125 -0.47873,3.13278 -0.85695,6.28962 -1.1875,9.46875 9.46857,-58.72547 60.2547,-103.59375 121.65625,-103.59375 68.13722,0 123.375,55.20653 123.375,123.34375 0,0.41114 -0.0585,0.80856 -0.0625,1.21875 l 0.5,0 c -0.054,3.38179 -0.18538,6.75505 -0.40625,10.09375 -0.22087,3.3387 -0.52253,6.64593 -0.90625,9.9375 -0.76745,6.58314 -1.85532,13.0671 -3.25,19.4375 -1.39468,6.3704 -3.10408,12.62465 -5.09375,18.75 -1.98967,6.12535 -4.2601,12.12075 -6.8125,17.96875 -2.5524,5.848 -5.38588,11.5554 -8.46875,17.09375 -3.08287,5.53835 -6.41891,10.89736 -10,16.09375 -3.58109,5.19639 -7.42169,10.20913 -11.46875,15.03125 -4.04706,4.82212 -8.30048,9.45945 -12.78125,13.875 -4.48077,4.41555 -9.18028,8.61707 -14.0625,12.59375 -4.88222,3.97668 -9.96733,7.7445 -15.21875,11.25 -5.25142,3.5055 -10.66163,6.74799 -16.25,9.75 -5.58837,3.00201 -11.32569,5.75253 -17.21875,8.21875 -5.89306,2.46622 -11.9595,4.66438 -18.125,6.5625 -6.1655,1.89812 -12.43806,3.48353 -18.84375,4.78125 -6.40569,1.29772 -12.91764,2.30374 -19.53125,2.96875 -3.30681,0.33251 -6.64726,0.58173 -10,0.75 -3.35274,0.16827 -6.73036,0.25 -10.125,0.25 -6.19757,0 -12.32245,-0.2885 -18.375,-0.84375 -6.05255,-0.55525 -12.02327,-1.38282 -17.90625,-2.46875 -5.88298,-1.08593 -11.68616,-2.4392 -17.375,-4.03125 -5.68884,-1.59205 -11.27985,-3.4264 -16.75,-5.5 -5.47015,-2.0736 -10.80434,-4.37565 -16.03125,-6.90625 -5.22691,-2.5306 -10.3534,-5.28697 -15.3125,-8.25 -1.48225,-0.88563 -2.8556,-1.92091 -4.3125,-2.84375 44.82215,48.57654 109.00443,79.03125 180.3125,79.03125 135.48293,0 245.3125,-109.82956 245.3125,-245.3125 0,-65.8509 -25.9918,-125.5915 -68.21875,-169.65625 z"
         style="fill:url(#radialGradient4154);fill-opacity:1;stroke:none"
         inkscape:connector-curvature="0" />
      <path
         inkscape:connector-curvature="0"
         id="path3912"
         d="m 499.53125,335.0625 c -3.40049,3.21411 -6.64729,6.59342 -9.71875,10.125 -3.08113,3.5427 -5.99596,7.22582 -8.71875,11.0625 -2.72279,3.83668 -5.25657,7.83237 -7.59375,11.9375 -2.33718,4.10513 -4.48195,8.33946 -6.40625,12.6875 -1.9243,4.34804 -3.60962,8.80958 -5.09375,13.375 -1.48413,4.56542 -2.76455,9.21149 -3.78125,13.96875 -1.0167,4.75726 -1.79051,9.60768 -2.3125,14.53125 -0.52199,4.92357 -0.78125,9.93565 -0.78125,15 0,4.88215 0.23589,9.71401 0.71875,14.46875 0.48286,4.75474 1.21422,9.42761 2.15625,14.03125 0.94203,4.60364 2.09125,9.13366 3.46875,13.5625 1.3775,4.42884 2.99198,8.76966 4.78125,13 1.78927,4.23034 3.76016,8.3356 5.9375,12.34375 2.17734,4.00815 4.55203,7.92524 7.09375,11.6875 2.54172,3.76226 5.27385,7.38233 8.15625,10.875 2.8824,3.49267 5.92561,6.83187 9.125,10.03125 3.19939,3.19938 6.53858,6.2426 10.03125,9.125 3.49267,2.8824 7.11274,5.61453 10.875,8.15625 3.76226,2.54172 7.67935,4.91641 11.6875,7.09375 4.00815,2.17734 8.11341,4.14823 12.34375,5.9375 4.23034,1.78927 8.57116,3.40375 13,4.78125 4.42884,1.3775 8.95886,2.52672 13.5625,3.46875 4.60364,0.94203 9.27651,1.67339 14.03125,2.15625 4.75474,0.48286 9.5866,0.71875 14.46875,0.71875 4.88215,0 9.71401,-0.23589 14.46875,-0.71875 4.75474,-0.48286 9.42761,-1.21422 14.03125,-2.15625 4.60364,-0.94203 9.13366,-2.09125 13.5625,-3.46875 4.42884,-1.3775 8.76966,-2.99198 13,-4.78125 4.23034,-1.78927 8.3356,-3.76016 12.34375,-5.9375 4.00815,-2.17734 7.92524,-4.55203 11.6875,-7.09375 0.63656,-0.43005 1.21463,-0.93492 1.84375,-1.375 1.96412,-2.62347 4.03974,-5.15853 5.875,-7.875 3.57012,-5.28432 6.91041,-10.74537 9.96875,-16.375 3.05834,-5.62963 5.83049,-11.43335 8.34375,-17.375 2.51326,-5.94165 4.75261,-12.02962 6.6875,-18.25 1.93489,-6.22038 3.58303,-12.56544 4.90625,-19.03125 0.66161,-3.23291 1.24755,-6.49323 1.75,-9.78125 0.47251,-3.09206 0.86001,-6.20651 1.1875,-9.34375 -0.26979,1.66269 -0.44568,3.36034 -0.78125,5 -0.39785,1.94399 -0.98061,3.80929 -1.46875,5.71875 -0.5201,2.03447 -0.94265,4.10123 -1.5625,6.09375 -1.20161,3.86262 -2.59545,7.6544 -4.15625,11.34375 -0.44802,1.05901 -1.02348,2.05011 -1.5,3.09375 -1.18356,2.59216 -2.36463,5.19541 -3.71875,7.6875 -1.89931,3.49544 -3.93909,6.87536 -6.15625,10.15625 -2.21716,3.28089 -4.61067,6.45431 -7.125,9.5 -2.51433,3.04569 -5.14668,5.96015 -7.9375,8.75 -1.72862,1.72801 -3.60923,3.31405 -5.4375,4.9375 -0.64075,0.57049 -1.25362,1.16156 -1.90625,1.71875 -0.49346,0.42026 -0.93738,0.89992 -1.4375,1.3125 -1.20452,0.99368 -2.50775,1.86429 -3.75,2.8125 -1.35941,1.0402 -2.72182,2.07854 -4.125,3.0625 -0.5556,0.38866 -1.06275,0.83906 -1.625,1.21875 -1.04856,0.70811 -2.17883,1.29237 -3.25,1.96875 -1.50461,0.95259 -3.01466,1.89305 -4.5625,2.78125 -0.79727,0.45632 -1.53545,0.99859 -2.34375,1.4375 -0.90264,0.49013 -1.86518,0.87566 -2.78125,1.34375 -1.72645,0.8843 -3.47742,1.69606 -5.25,2.5 -0.93181,0.42174 -1.80601,0.94466 -2.75,1.34375 -0.78205,0.33063 -1.61606,0.56013 -2.40625,0.875 -1.73778,0.6938 -3.50538,1.32165 -5.28125,1.9375 -1.22835,0.4253 -2.41063,0.95651 -3.65625,1.34375 -0.63387,0.19706 -1.29929,0.31293 -1.9375,0.5 -2.00318,0.58815 -4.0494,1.07485 -6.09375,1.5625 -1.27041,0.3025 -2.49594,0.70587 -3.78125,0.96875 -0.37955,0.0776 -0.77544,0.11337 -1.15625,0.1875 -2.26058,0.441 -4.57173,0.7157 -6.875,1.03125 -1.41403,0.19335 -2.78988,0.51122 -4.21875,0.65625 -0.28725,0.0292 -0.58717,0.004 -0.875,0.0312 -3.87092,0.36637 -7.78214,0.59375 -11.75,0.59375 -68.13722,0 -123.375,-55.20653 -123.375,-123.34375 0,-0.41114 0.0585,-0.80856 0.0625,-1.21875 l -0.5,0 c 0.054,-3.38179 0.18538,-6.75505 0.40625,-10.09375 0.22087,-3.3387 0.52253,-6.64593 0.90625,-9.9375 0.76745,-6.58314 1.85532,-13.0671 3.25,-19.4375 1.39468,-6.3704 3.10408,-12.62465 5.09375,-18.75 1.98967,-6.12535 4.2601,-12.12075 6.8125,-17.96875 2.5524,-5.848 5.38588,-11.5554 8.46875,-17.09375 1.18518,-2.12917 2.5842,-4.11039 3.84375,-6.1875 z"
         style="opacity:0.8408163;fill:url(#radialGradient4156);fill-opacity:1;stroke:none" />
      <path
         inkscape:connector-curvature="0"
         id="path4009"
         d="m 418.68304,605.54911 c 44.65161,46.59494 107.46171,75.65625 177.09375,75.65625 67.7891,0 129.1621,-27.48944 173.5625,-71.9375 -1.56291,0.90522 -3.03551,1.94904 -4.625,2.8125 -5.62933,3.05804 -11.43361,5.83075 -17.375,8.34375 -5.94139,2.513 -12.02983,4.75283 -18.25,6.6875 -6.22017,1.93467 -12.56559,3.58318 -19.03125,4.90625 -3.23283,0.66153 -6.49329,1.24761 -9.78125,1.75 -3.28796,0.50239 -6.59857,0.91091 -9.9375,1.25 -3.33893,0.33909 -6.70801,0.60963 -10.09375,0.78125 -3.38574,0.17162 -6.79035,0.25 -10.21875,0.25 -3.4284,0 -6.83301,-0.0784 -10.21875,-0.25 -3.38574,-0.17162 -6.75482,-0.44216 -10.09375,-0.78125 -3.33893,-0.33909 -6.64954,-0.74761 -9.9375,-1.25 -3.28796,-0.50239 -6.54842,-1.08847 -9.78125,-1.75 -6.46566,-1.32307 -12.81108,-2.97158 -19.03125,-4.90625 -6.22017,-1.93467 -12.30861,-4.1745 -18.25,-6.6875 -0.64194,-0.27152 -1.23631,-0.62864 -1.875,-0.90625 -4.10352,1.58791 -8.17587,3.24661 -12.40625,4.5625 -6.22038,1.93489 -12.56544,3.58303 -19.03125,4.90625 -3.23291,0.66161 -6.49323,1.24755 -9.78125,1.75 -3.28802,0.50245 -6.59853,0.91087 -9.9375,1.25 -3.33897,0.33913 -6.70798,0.60961 -10.09375,0.78125 -3.38577,0.17164 -6.79035,0.25 -10.21875,0.25 -3.91101,0 -7.8013,-0.12077 -11.65625,-0.34375 -3.85495,-0.22298 -7.67602,-0.56022 -11.46875,-1 -3.79273,-0.43978 -7.55688,-0.9746 -11.28125,-1.625 -3.72437,-0.6504 -7.41265,-1.39516 -11.0625,-2.25 -3.64985,-0.85484 -7.24333,-1.8219 -10.8125,-2.875 -3.56917,-1.0531 -7.1114,-2.19231 -10.59375,-3.4375 -3.48235,-1.24519 -6.92313,-2.60016 -10.3125,-4.03125 -3.38937,-1.43109 -6.70976,-2.95168 -10,-4.5625 -3.29024,-1.61082 -6.53379,-3.30938 -9.71875,-5.09375 -1.28053,-0.71742 -2.51843,-1.50523 -3.78125,-2.25 z"
         style="fill:#981946;fill-opacity:1;stroke:none" />
      <path
         inkscape:connector-curvature="0"
         id="path4007"
         d="m 407.0625,593.78125 c 3.49703,4.16895 7.14389,8.1989 10.90625,12.125 -3.75002,-3.91322 -7.35665,-7.97122 -10.84375,-12.125 l -0.0625,0 z"
         style="fill:#cccccc;stroke:none" />
      <path
         inkscape:connector-curvature="0"
         style="fill:#145190;fill-opacity:1;stroke:none"
         d="m 418.68304,267.5625 c 44.65161,-46.59494 107.46171,-75.65625 177.09375,-75.65625 67.7891,0 129.1621,27.48944 173.5625,71.9375 -1.56291,-0.90522 -3.03551,-1.94904 -4.625,-2.8125 -5.62933,-3.05804 -11.43361,-5.83075 -17.375,-8.34375 -5.94139,-2.513 -12.02983,-4.75283 -18.25,-6.6875 -6.22017,-1.93467 -12.56559,-3.58318 -19.03125,-4.90625 -3.23283,-0.66153 -6.49329,-1.24761 -9.78125,-1.75 -3.28796,-0.50239 -6.59857,-0.91091 -9.9375,-1.25 -3.33893,-0.33909 -6.70801,-0.60963 -10.09375,-0.78125 -3.38574,-0.17162 -6.79035,-0.25 -10.21875,-0.25 -3.4284,0 -6.83301,0.0784 -10.21875,0.25 -3.38574,0.17162 -6.75482,0.44216 -10.09375,0.78125 -3.33893,0.33909 -6.64954,0.74761 -9.9375,1.25 -3.28796,0.50239 -6.54842,1.08847 -9.78125,1.75 -6.46566,1.32307 -12.81108,2.97158 -19.03125,4.90625 -6.22017,1.93467 -12.30861,4.1745 -18.25,6.6875 -0.64194,0.27152 -1.23631,0.62864 -1.875,0.90625 -4.10352,-1.58791 -8.17587,-3.24661 -12.40625,-4.5625 -6.22038,-1.93489 -12.56544,-3.58303 -19.03125,-4.90625 -3.23291,-0.66161 -6.49323,-1.24755 -9.78125,-1.75 -3.28802,-0.50245 -6.59853,-0.91087 -9.9375,-1.25 -3.33897,-0.33913 -6.70798,-0.60961 -10.09375,-0.78125 -3.38577,-0.17164 -6.79035,-0.25 -10.21875,-0.25 -3.91101,0 -7.8013,0.12077 -11.65625,0.34375 -3.85495,0.22298 -7.67602,0.56022 -11.46875,1 -3.79273,0.43978 -7.55688,0.9746 -11.28125,1.625 -3.72437,0.6504 -7.41265,1.39516 -11.0625,2.25 -3.64985,0.85484 -7.24333,1.8219 -10.8125,2.875 -3.56917,1.0531 -7.1114,2.19231 -10.59375,3.4375 -3.48235,1.24519 -6.92313,2.60016 -10.3125,4.03125 -3.38937,1.43109 -6.70976,2.95168 -10,4.5625 -3.29024,1.61082 -6.53379,3.30938 -9.71875,5.09375 -1.28053,0.71742 -2.51843,1.50523 -3.78125,2.25 z"
         id="path4013" />
      <path
         inkscape:connector-curvature="0"
         style="fill:#911245;fill-opacity:1;stroke:none"
         d="m 690.88359,537.08594 c 3.40049,-3.21411 6.64729,-6.59341 9.71875,-10.125 3.08112,-3.5427 5.99596,-7.22582 8.71875,-11.0625 2.72278,-3.83668 5.25657,-7.83237 7.59375,-11.9375 2.33718,-4.10512 4.48194,-8.33945 6.40625,-12.6875 1.9243,-4.34804 3.60962,-8.80957 5.09375,-13.375 1.48413,-4.56542 2.76454,-9.21149 3.78125,-13.96875 1.0167,-4.75725 1.7905,-9.60768 2.3125,-14.53125 0.52199,-4.92356 0.78125,-9.93565 0.78125,-15 0,-4.88215 -0.23589,-9.714 -0.71875,-14.46875 -0.48287,-4.75474 -1.21422,-9.42761 -2.15625,-14.03125 -0.94203,-4.60363 -2.09125,-9.13366 -3.46875,-13.5625 -1.3775,-4.42883 -2.99198,-8.76966 -4.78125,-13 -1.78927,-4.23034 -3.76016,-8.3356 -5.9375,-12.34375 -2.17735,-4.00815 -4.55203,-7.92524 -7.09375,-11.6875 -2.54172,-3.76225 -5.27385,-7.38233 -8.15625,-10.875 -2.88241,-3.49266 -5.92561,-6.83186 -9.125,-10.03125 -3.19939,-3.19938 -6.53859,-6.2426 -10.03125,-9.125 -3.49267,-2.88239 -7.11274,-5.61452 -10.875,-8.15625 -3.76227,-2.54172 -7.67935,-4.91641 -11.6875,-7.09375 -4.00815,-2.17733 -8.11341,-4.14823 -12.34375,-5.9375 -4.23034,-1.78927 -8.57117,-3.40374 -13,-4.78125 -4.42884,-1.3775 -8.95887,-2.52671 -13.5625,-3.46875 -4.60364,-0.94203 -9.27651,-1.67339 -14.03125,-2.15625 -4.75475,-0.48285 -9.5866,-0.71875 -14.46875,-0.71875 -4.88216,0 -9.71401,0.2359 -14.46875,0.71875 -4.75475,0.48286 -9.42762,1.21422 -14.03125,2.15625 -4.60364,0.94204 -9.13367,2.09125 -13.5625,3.46875 -4.42885,1.37751 -8.76966,2.99198 -13,4.78125 -4.23035,1.78927 -8.3356,3.76017 -12.34375,5.9375 -4.00815,2.17734 -7.92525,4.55203 -11.6875,7.09375 -0.63656,0.43006 -1.21463,0.93493 -1.84375,1.375 -1.96412,2.62347 -4.03974,5.15854 -5.875,7.875 -3.57012,5.28432 -6.91041,10.74537 -9.96875,16.375 -3.05835,5.62964 -5.8305,11.43336 -8.34375,17.375 -2.51326,5.94165 -4.75261,12.02963 -6.6875,18.25 -1.93489,6.22038 -3.58303,12.56545 -4.90625,19.03125 -0.66161,3.23291 -1.24756,6.49323 -1.75,9.78125 -0.47252,3.09206 -0.86001,6.20651 -1.1875,9.34375 0.26978,-1.66269 0.44568,-3.36034 0.78125,-5 0.39784,-1.94398 0.9806,-3.80928 1.46875,-5.71875 0.52009,-2.03447 0.94264,-4.10122 1.5625,-6.09375 1.2016,-3.86262 2.59545,-7.6544 4.15625,-11.34375 0.44802,-1.05901 1.02347,-2.05011 1.5,-3.09375 1.18356,-2.59215 2.36463,-5.1954 3.71875,-7.6875 1.89931,-3.49543 3.93908,-6.87536 6.15625,-10.15625 2.21715,-3.28089 4.61067,-6.45431 7.125,-9.5 2.51432,-3.04569 5.14668,-5.96015 7.9375,-8.75 1.72861,-1.72801 3.60923,-3.31404 5.4375,-4.9375 0.64075,-0.57048 1.25361,-1.16156 1.90625,-1.71875 0.49346,-0.42025 0.93738,-0.89991 1.4375,-1.3125 1.20452,-0.99368 2.50774,-1.86428 3.75,-2.8125 1.35941,-1.0402 2.72181,-2.07853 4.125,-3.0625 0.5556,-0.38865 1.06275,-0.83906 1.625,-1.21875 1.04855,-0.70811 2.17883,-1.29237 3.25,-1.96875 1.5046,-0.95258 3.01466,-1.89305 4.5625,-2.78125 0.79727,-0.45632 1.53545,-0.99859 2.34375,-1.4375 0.90264,-0.49013 1.86518,-0.87566 2.78125,-1.34375 1.72645,-0.8843 3.47741,-1.69606 5.25,-2.5 0.93181,-0.42174 1.80601,-0.94466 2.75,-1.34375 0.78205,-0.33063 1.61606,-0.56012 2.40625,-0.875 1.73777,-0.6938 3.50538,-1.32164 5.28125,-1.9375 1.22834,-0.4253 2.41063,-0.9565 3.65625,-1.34375 0.63387,-0.19705 1.29928,-0.31293 1.9375,-0.5 2.00317,-0.58815 4.0494,-1.07484 6.09375,-1.5625 1.27041,-0.3025 2.49594,-0.70587 3.78125,-0.96875 0.37955,-0.0776 0.77544,-0.11337 1.15625,-0.1875 2.26058,-0.441 4.57173,-0.71569 6.875,-1.03125 1.41403,-0.19335 2.78987,-0.51121 4.21875,-0.65625 0.28724,-0.0292 0.58717,-0.004 0.875,-0.0312 3.87092,-0.36636 7.78214,-0.59375 11.75,-0.59375 68.13722,0 123.375,55.20653 123.375,123.34375 0,0.41114 -0.0585,0.80856 -0.0625,1.21875 l 0.5,0 c -0.054,3.3818 -0.18538,6.75505 -0.40625,10.09375 -0.22087,3.33871 -0.52254,6.64594 -0.90625,9.9375 -0.76745,6.58315 -1.85532,13.0671 -3.25,19.4375 -1.39468,6.37041 -3.10408,12.62465 -5.09375,18.75 -1.98967,6.12536 -4.26011,12.12075 -6.8125,17.96875 -2.5524,5.84801 -5.38588,11.5554 -8.46875,17.09375 -1.18518,2.12917 -2.5842,4.1104 -3.84375,6.1875 z"
         id="path4017" />
    </g>
    <g
       transform="scale(1.0116573,0.98847702)"
       style="font-size:621.13269043000003000px;font-style:normal;font-variant:normal;font-weight:normal;font-stretch:normal;text-align:center;line-height:125%;letter-spacing:0px;word-spacing:0px;text-anchor:middle;fill:#145190;fill-opacity:1;stroke:none;font-family:Ink Free;-inkscape-font-specification:Ink Free"
       id="text3058">
      <path
         d="m 947.57739,514.17841 0,-123.50539 46.33558,0 c 9.43553,1.3e-4 17.00363,1.24978 22.70443,3.74897 5.7006,2.49943 10.1657,6.34669 13.3952,11.54178 3.2294,5.1953 4.8441,10.62919 4.8442,16.30169 -10e-5,5.27954 -1.4323,10.25008 -4.2966,14.91164 -2.8645,4.66171 -7.1891,8.42472 -12.974,11.28903 7.4698,2.19047 13.2126,5.9254 17.2285,11.20478 4.0156,5.2795 6.0235,11.51374 6.0236,18.70273 -10e-5,5.78496 -1.2217,11.16269 -3.6647,16.13321 -2.4433,4.97055 -5.4621,8.80377 -9.0565,11.49964 -3.5947,2.6959 -8.1018,4.73185 -13.5216,6.10788 -5.4199,1.37602 -12.0614,2.06404 -19.92431,2.06404 z m 16.34382,-71.60954 26.70615,0 c 7.24513,7e-5 12.44034,-0.47732 15.58564,-1.43219 4.156,-1.23554 7.2872,-3.28553 9.3934,-6.14999 2.1061,-2.8643 3.1592,-6.45882 3.1593,-10.78356 -1e-4,-4.0999 -0.983,-7.70845 -2.9486,-10.82567 -1.9659,-3.11702 -4.7741,-5.25126 -8.4247,-6.40274 -3.6507,-1.15126 -9.91306,-1.72694 -18.78696,-1.72705 l -24.68423,0 z m 0,57.03489 30.74998,0 c 5.27938,10e-6 8.98621,-0.19656 11.12051,-0.58973 3.763,-0.67395 6.9082,-1.79724 9.4356,-3.36986 2.5273,-1.57258 4.6054,-3.86127 6.2343,-6.86609 1.6287,-3.00476 2.443,-6.4729 2.4431,-10.40444 -1e-4,-4.60544 -1.1795,-8.60714 -3.5383,-12.00513 -2.359,-3.39789 -5.6306,-5.78487 -9.8147,-7.16095 -4.1844,-1.37597 -10.208,-2.06398 -18.07092,-2.06404 l -28.55957,0 z"
         style="font-size:172.53684998000000000px;font-family:Arial;-inkscape-font-specification:Arial;fill:#145190;fill-opacity:1"
         id="path3086" />
      <path
         d="m 1049.9369,514.17841 47.4308,-123.50539 17.6075,0 50.5479,123.50539 -18.6185,0 -14.4061,-37.40545 -51.6431,0 -13.5637,37.40545 z m 35.6363,-50.7164 41.8705,0 -12.8897,-34.20409 c -3.9316,-10.3903 -6.8521,-18.92727 -8.7617,-25.61093 -1.5726,7.91927 -3.7911,15.78227 -6.6554,23.58902 z"
         style="font-size:172.53684998000000000px;font-family:Arial;-inkscape-font-specification:Arial;fill:#145190;fill-opacity:1"
         id="path3088" />
      <path
         d="m 1178.5813,514.17841 0,-123.50539 16.7651,0 64.8698,96.96774 0,-96.96774 15.6698,0 0,123.50539 -16.765,0 -64.8698,-97.05198 0,97.05198 z"
         style="font-size:172.53684998000000000px;font-family:Arial;-inkscape-font-specification:Arial;fill:#145190;fill-opacity:1"
         id="path3090" />
      <path
         d="m 1391.5565,470.8757 16.3438,4.12808 c -3.4261,13.4233 -9.5901,23.65924 -18.4921,30.70785 -8.9021,7.04863 -19.784,10.57294 -32.6455,10.57294 -13.311,0 -24.1367,-2.70993 -32.477,-8.12979 -8.3405,-5.41985 -14.687,-13.26881 -19.0397,-23.5469 -4.3528,-10.27803 -6.5292,-21.31431 -6.5292,-33.10888 0,-12.86155 2.4572,-24.08037 7.3716,-33.65648 4.9144,-9.57591 11.9068,-16.84919 20.9774,-21.81984 9.0705,-4.97042 19.0537,-7.45569 29.9496,-7.45582 12.3561,1.3e-4 22.7465,3.14533 31.1712,9.43561 8.4246,6.29052 14.2938,15.13639 17.6076,26.53765 l -16.0911,3.79109 c -2.8645,-8.9862 -7.0207,-15.52934 -12.4685,-19.62943 -5.448,-4.09989 -12.3001,-6.14989 -20.5562,-6.15 -9.4918,1.1e-4 -17.425,2.27477 -23.7996,6.82397 -6.3747,4.54941 -10.8538,10.65728 -13.4373,18.32361 -2.5836,7.66652 -3.8754,15.57164 -3.8754,23.7154 0,10.50278 1.5305,19.6716 4.5915,27.50648 3.0609,7.83495 7.8208,13.69008 14.2798,17.5654 6.4588,3.87535 13.4513,5.81302 20.9773,5.81301 9.1548,1e-5 16.9054,-2.63971 23.2521,-7.91917 6.3465,-5.27943 10.643,-13.11434 12.8897,-23.50478 z"
         style="font-size:172.53684998000000000px;font-family:Arial;-inkscape-font-specification:Arial;fill:#145190;fill-opacity:1"
         id="path3092" />
      <path
         d="m 1423.1489,454.0264 c 0,-20.4999 5.5041,-36.54885 16.5123,-48.14688 11.0082,-11.59782 25.2178,-17.39678 42.6288,-17.39691 11.4013,1.3e-4 21.6793,2.7241 30.8342,8.17192 9.1547,5.44805 16.1331,13.04427 20.9353,22.78868 4.8019,9.74459 7.2029,20.79492 7.203,33.151 -10e-5,12.52469 -2.5275,23.72947 -7.5822,33.61435 -5.0549,9.88495 -12.2158,17.36884 -21.4828,22.4517 -9.2672,5.08287 -19.2645,7.62431 -29.9918,7.62431 -11.626,0 -22.0164,-2.80822 -31.1712,-8.42465 -9.1548,-5.61642 -16.0911,-13.28285 -20.8089,-22.9993 -4.7178,-9.71639 -7.0767,-19.99445 -7.0767,-30.83422 z m 16.8493,0.25274 c 0,14.88359 4.0017,26.60789 12.0052,35.17292 8.0033,8.56507 18.0427,12.8476 30.1181,12.84759 12.2999,1e-5 22.4235,-4.32464 30.3708,-12.97396 7.9472,-8.64928 11.9208,-20.92117 11.9209,-36.81573 -10e-5,-10.05334 -1.6991,-18.82901 -5.0969,-26.32703 -3.398,-7.49785 -8.3686,-13.31085 -14.9116,-17.43903 -6.5432,-4.12797 -13.8867,-6.19201 -22.0305,-6.19212 -11.5699,1.1e-4 -21.525,3.97374 -29.8654,11.92088 -8.3404,7.94735 -12.5106,21.21616 -12.5106,39.80648 z"
         style="font-size:172.53684998000000000px;font-family:Arial;-inkscape-font-specification:Arial;fill:#145190;fill-opacity:1"
         id="path3094" />
    </g>
    <g
       style="font-size:724.18688964999990000px;font-style:normal;font-variant:normal;font-weight:normal;font-stretch:normal;text-align:center;line-height:125%;letter-spacing:0px;word-spacing:0px;text-anchor:middle;fill:#145190;fill-opacity:1;stroke:none;font-family:Ink Free;-inkscape-font-specification:Ink Free"
       id="text3062">
      <path
         d="m 1019.2136,621.24185 0,-21.83522 56.4003,0 0,51.6266 c -5.481,5.30412 -13.4225,9.97467 -23.8243,14.01168 -10.402,4.03701 -20.9365,6.05551 -31.6036,6.05551 -13.555,0 -25.37134,-2.84358 -35.44909,-8.53076 -10.07782,-5.68717 -17.65089,-13.82012 -22.71924,-24.39888 -5.06838,-10.57869 -7.60256,-22.08564 -7.60255,-34.52087 -10e-6,-13.49592 2.82885,-25.48907 8.48657,-35.9795 5.65769,-10.49022 13.93797,-18.53477 24.84088,-24.13367 8.30971,-4.30209 18.65273,-6.45319 31.02903,-6.45332 16.089,1.3e-4 28.6568,3.37412 37.7033,10.12199 9.0463,6.74812 14.8661,16.07449 17.4593,27.97915 l -25.9901,4.86209 c -1.827,-6.36483 -5.26,-11.38899 -10.2988,-15.07249 -5.0389,-3.6833 -11.3302,-5.525 -18.8737,-5.52511 -11.4334,1.1e-4 -20.52401,3.62458 -27.27196,10.87341 -6.74803,7.24904 -10.12203,18.00457 -10.12199,32.26663 -4e-5,15.38195 3.41816,26.91836 10.2546,34.60927 6.83634,7.69098 15.79435,11.53645 26.87415,11.53643 5.4808,2e-5 10.9764,-1.07553 16.4869,-3.22666 5.5103,-2.15109 10.2398,-4.75894 14.1885,-7.82356 l 0,-16.44272 z"
         style="font-size:181.04672241000000000px;font-weight:bold;font-family:Arial;-inkscape-font-specification:Arial Bold;fill:#145190;fill-opacity:1"
         id="path3067" />
      <path
         d="m 1099.4823,539.29346 26.167,0 0,70.19097 c -10e-5,11.13866 0.3241,18.35813 0.9724,21.65842 1.1197,5.30413 3.7865,9.56214 8.0003,12.77404 4.2138,3.21196 9.9746,4.81792 17.2826,4.8179 7.4256,2e-5 13.0244,-1.51754 16.7963,-4.55269 3.7717,-3.0351 6.0407,-6.7627 6.8069,-11.18282 0.7661,-4.42004 1.1492,-11.75738 1.1492,-22.01203 l 0,-71.69379 26.167,0 0,68.06932 c -2e-4,15.55875 -0.7074,26.55002 -2.1217,32.97385 -1.4145,6.42388 -4.0224,11.84584 -7.8235,16.26591 -3.8014,4.4201 -8.8845,7.94143 -15.2493,10.56401 -6.365,2.62258 -14.6748,3.93387 -24.9293,3.93387 -12.3763,0 -21.7616,-1.42916 -28.156,-4.28748 -6.3944,-2.85832 -11.448,-6.57119 -15.1609,-11.13862 -3.7129,-4.5674 -6.1586,-9.35582 -7.3373,-14.36528 -1.7091,-7.42571 -2.5637,-18.38751 -2.5637,-32.88544 z"
         style="font-size:181.04672241000000000px;font-weight:bold;font-family:Arial;-inkscape-font-specification:Arial Bold;fill:#145190;fill-opacity:1"
         id="path3069" />
      <path
         d="m 1347.3608,668.89038 -28.4654,0 -11.3154,-29.43777 -51.8034,0 -10.6966,29.43777 -27.7582,0 50.4774,-129.59692 27.6697,0 z m -48.179,-51.273 -17.8571,-48.09053 -17.5036,48.09053 z"
         style="font-size:181.04672241000000000px;font-weight:bold;font-family:Arial;-inkscape-font-specification:Arial Bold;fill:#145190;fill-opacity:1"
         id="path3071" />
      <path
         d="m 1395.3629,668.89038 0,-54.54386 -47.4717,-75.05306 30.6754,0 30.4986,51.273 29.8798,-51.273 30.1449,0 -47.6485,75.22986 0,54.36706 z"
         style="font-size:181.04672241000000000px;font-weight:bold;font-family:Arial;-inkscape-font-specification:Arial Bold;fill:#145190;fill-opacity:1"
         id="path3073" />
      <path
         d="m 1599.1289,668.89038 -28.4654,0 -11.3154,-29.43777 -51.8034,0 -10.6966,29.43777 -27.7581,0 50.4773,-129.59692 27.6698,0 z m -48.179,-51.273 -17.8571,-48.09053 -17.5035,48.09053 z"
         style="font-size:181.04672241000000000px;font-weight:bold;font-family:Arial;-inkscape-font-specification:Arial Bold;fill:#145190;fill-opacity:1"
         id="path3075" />
      <path
         d="m 1717.4104,652.44766 c 6.4237,4.5969 13.4074,8.25084 20.9512,10.96181 l -9.6358,18.47596 c -3.9487,-1.1787 -7.8089,-2.79939 -11.5806,-4.86209 -0.8252,-0.41255 -6.6303,-4.24329 -17.4152,-11.49222 -8.4866,3.71287 -17.8867,5.5693 -28.2001,5.5693 -19.9199,0 -35.5228,-5.86397 -46.8087,-17.59194 -11.286,-11.72793 -16.929,-28.2001 -16.929,-49.41656 0,-21.15739 5.6577,-37.61483 16.9732,-49.37236 11.3154,-11.7573 26.6678,-17.63601 46.0573,-17.63614 19.2125,1.3e-4 34.4471,5.87884 45.7037,17.63614 11.2563,11.75753 16.8845,28.21497 16.8847,49.37236 -2e-4,11.1976 -1.5619,21.03965 -4.6853,29.52617 -2.3575,6.48283 -6.1293,12.75934 -11.3154,18.82957 z m -21.0396,-14.76309 c 3.3591,-3.94857 5.8786,-8.72226 7.5583,-14.32107 1.6795,-5.59873 2.5194,-12.02258 2.5195,-19.27158 -10e-5,-14.96928 -3.3005,-26.15208 -9.901,-33.54845 -6.6008,-7.39617 -15.2347,-11.09431 -25.9017,-11.09442 -10.6672,1.1e-4 -19.3159,3.71298 -25.9459,11.13862 -6.6302,7.42583 -9.9453,18.59391 -9.9452,33.50425 -10e-5,15.14621 3.315,26.47635 9.9452,33.99046 6.63,7.51417 15.0135,11.27124 25.1502,11.27122 3.7718,2e-5 7.3373,-0.61879 10.6967,-1.85644 -5.3042,-3.4771 -10.6967,-6.18809 -16.1776,-8.13295 l 7.3374,-14.93989 c 8.6043,2.94676 16.8257,7.36684 24.6641,13.26025 z"
         style="font-size:181.04672241000000000px;font-weight:bold;font-family:Arial;-inkscape-font-specification:Arial Bold;fill:#145190;fill-opacity:1"
         id="path3077" />
      <path
         d="m 1753.6551,539.29346 26.1669,0 0,70.19097 c -10e-5,11.13866 0.3241,18.35813 0.9724,21.65842 1.1197,5.30413 3.7865,9.56214 8.0004,12.77404 4.2137,3.21196 9.9746,4.81792 17.2825,4.8179 7.4257,2e-5 13.0244,-1.51754 16.7963,-4.55269 3.7717,-3.0351 6.0407,-6.7627 6.807,-11.18282 0.766,-4.42004 1.1491,-11.75738 1.1492,-22.01203 l 0,-71.69379 26.1669,0 0,68.06932 c -10e-5,15.55875 -0.7073,26.55002 -2.1217,32.97385 -1.4145,6.42388 -4.0223,11.84584 -7.8235,16.26591 -3.8014,4.4201 -8.8845,7.94143 -15.2493,10.56401 -6.365,2.62258 -14.6748,3.93387 -24.9293,3.93387 -12.3763,0 -21.7616,-1.42916 -28.1559,-4.28748 -6.3945,-2.85832 -11.4481,-6.57119 -15.1609,-11.13862 -3.7129,-4.5674 -6.1587,-9.35582 -7.3374,-14.36528 -1.7091,-7.42571 -2.5636,-18.38751 -2.5636,-32.88544 z"
         style="font-size:181.04672241000000000px;font-weight:bold;font-family:Arial;-inkscape-font-specification:Arial Bold;fill:#145190;fill-opacity:1"
         id="path3079" />
      <path
         d="m 1883.8708,668.89038 0,-129.59692 26.1669,0 0,129.59692 z"
         style="font-size:181.04672241000000000px;font-weight:bold;font-family:Arial;-inkscape-font-specification:Arial Bold;fill:#145190;fill-opacity:1"
         id="path3081" />
      <path
         d="m 1935.5858,668.89038 0,-128.5361 26.167,0 0,106.70088 65.0636,0 0,21.83522 z"
         style="font-size:181.04672241000000000px;font-weight:bold;font-family:Arial;-inkscape-font-specification:Arial Bold;fill:#145190;fill-opacity:1"
         id="path3083" />
    </g>
  </g>
</svg>
