<svg xmlns="http://www.w3.org/2000/svg" xmlns:xlink="http://www.w3.org/1999/xlink" viewBox="0 0 330 75"><defs><style>.a{isolation:isolate;}.b{fill:#007e32;}.c{mix-blend-mode:multiply;}.d{fill:#9d9d9c;stroke:#bdbcbc;stroke-miterlimit:10;stroke-width:0.22px;}.e{fill:url(#a);}.f{fill:url(#b);}.g{fill:url(#c);}.h{fill:#d0d0d0;}.i{fill:#fff;}</style><linearGradient id="a" x1="19.42" y1="47.22" x2="19.42" y2="27.78" gradientUnits="userSpaceOnUse"><stop offset="0" stop-color="#f8e800"/><stop offset="0.5" stop-color="#f8e800"/><stop offset="0.58" stop-color="#faeb1d"/><stop offset="0.71" stop-color="#fcee43"/><stop offset="0.82" stop-color="#fef15e"/><stop offset="0.92" stop-color="#fff26e"/><stop offset="1" stop-color="#fff374"/></linearGradient><linearGradient id="b" x1="38" y1="46.77" x2="38" y2="27.78" xlink:href="#a"/><linearGradient id="c" x1="56.58" y1="46.77" x2="56.58" y2="27.78" xlink:href="#a"/></defs><g class="a"><circle class="b" cx="38.14" cy="37.5" r="30.82"/><g class="c"><path class="d" d="M18.3,47.53c-4.81,0-7-2.69-7-6.84V39.1H16.6v1.09c0,1.46,0,2.82,1.56,2.82h2.09c1.51,0,1.41-1.84,1.41-2.69V28.09h5.85V40.24c0,5.24-2.37,7.29-7.13,7.29Z"/><path class="d" d="M30,28.09H45.71V33H35.85v2.36h9v4.52h-9v2.37H46v4.87H30Z"/><path class="d" d="M48.2,28.09H58c5.16,0,7,3.78,7,6.49,0,4.6-3.09,6.75-7.45,6.75H54.05v5.75H48.2Zm5.85,8.72h2.26c1.52,0,3.12-.1,3.12-2,0-1.73-1.34-1.83-2.77-1.83H54.05Z"/></g><path class="e" d="M18.3,47.22c-4.81,0-7-2.69-7-6.83v-1.6H16.6v1.09c0,1.46,0,2.82,1.56,2.82h2.09c1.51,0,1.41-1.84,1.41-2.69V27.78h5.85V39.93c0,5.24-2.37,7.29-7.13,7.29Z"/><path class="f" d="M30,27.78H45.71v4.87H35.85V35h9v4.52h-9V41.9H46v4.87H30Z"/><path class="g" d="M48.2,27.78H58c5.16,0,7,3.78,7,6.49,0,4.6-3.09,6.75-7.45,6.75H54.05v5.75H48.2Zm5.85,8.72h2.26c1.52,0,3.12-.1,3.12-2,0-1.73-1.34-1.83-2.77-1.83H54.05Z"/><rect class="b" x="93.18" y="6.68" width="0.87" height="61.64"/><path class="h" d="M118.74,32.68l1.86-14.24h1.32l-1.72,13h6l-.15,1.19Z"/><path class="h" d="M133.41,31.33A4.41,4.41,0,0,1,130,32.88c-1.85,0-2.85-1.11-2.65-2.67l0-.29c.25-2,1.68-2.52,3.52-2.81l3-.48.06-.4c.22-1.55-.24-2.35-2-2.35a2.28,2.28,0,0,0-2.5,2.32H128.2l0-.24A3.39,3.39,0,0,1,132,22.8c2.77,0,3.5,1.44,3.21,3.6l-.48,3.54-.23,2.74h-1.06Zm0-1.13.33-2.56-2.85.46c-1.32.2-2.08.75-2.23,1.75l0,.26c-.12.85.39,1.66,1.63,1.66A3.79,3.79,0,0,0,133.41,30.2Z"/><path class="i" d="M142.45,28c-.24,1.73.29,2.84,1.57,2.84A1.8,1.8,0,0,0,146,29.16h2.25l0,.16a3.85,3.85,0,0,1-4.23,3.6c-2.94,0-4.24-2.16-3.88-4.9l.06-.4c.38-2.76,1.66-4.86,4.64-4.86,2.77,0,4.09,1.52,3.81,3.53l0,.4H146.3c.11-1.08-.33-1.86-1.57-1.86s-2,.91-2.22,2.77Z"/><path class="i" d="M149.5,28l.06-.4c.38-2.76,1.66-4.86,4.76-4.86s4.37,2.16,4,4.9l0,.4c-.39,2.76-1.67,4.86-4.77,4.86S149.14,30.76,149.5,28Zm6.41.06.06-.4c.23-1.74-.3-2.85-1.7-2.85s-2.1.91-2.36,2.77l0,.41c-.24,1.73.29,2.84,1.69,2.84S155.66,29.94,155.91,28.08Z"/><path class="i" d="M159.42,28l.05-.4c.39-2.76,1.67-4.86,4.77-4.86s4.37,2.16,4,4.9l-.06.4c-.38,2.76-1.66,4.86-4.76,4.86S159.05,30.76,159.42,28Zm6.41.06,0-.4c.24-1.74-.29-2.85-1.69-2.85s-2.1.91-2.36,2.77l-.05.41c-.24,1.73.29,2.84,1.69,2.84S165.57,29.94,165.83,28.08Z"/><path class="i" d="M178.34,27.66l-.05.4c-.39,2.79-1.61,4.86-4.15,4.86a3,3,0,0,1-2.56-1.19l-.6,4.6h-2.37L170,25.74,170.2,23h2.1v1.26a3.64,3.64,0,0,1,2.94-1.5C177.68,22.76,178.72,24.81,178.34,27.66Zm-2.41.42,0-.4c.24-1.72-.31-2.85-1.66-2.85a2.58,2.58,0,0,0-2,1.07l-.49,3.8a1.88,1.88,0,0,0,1.73,1.15C174.93,30.85,175.69,29.79,175.93,28.08Z"/><path class="i" d="M181.68,28.72c-.12,1.57.63,2.35,2,2.35s2-.76,2.07-1.49H188v.16c-.2,1.77-1.65,3.18-4.35,3.18-3.31,0-4.55-2.18-4.18-4.9l.05-.4c.37-2.7,1.83-4.86,4.79-4.86s4.34,2.1,3.94,5l-.13.92ZM181.9,27H186c.16-1.44-.46-2.35-1.77-2.35S182.16,25.47,181.9,27Z"/><path class="i" d="M195.46,22.78l-.31,2.41h-.42a3,3,0,0,0-2.38,1l-.84,6.46h-2.37l.91-6.94.18-2.74h2.1v1.22a3.48,3.48,0,0,1,2.85-1.46Z"/><path class="i" d="M201.08,31.57a3.72,3.72,0,0,1-3.16,1.35A2.5,2.5,0,0,1,195.17,30v-.17c.24-2.08,1.63-2.74,3.67-3l2.62-.4v-.15c.15-1.15-.18-1.62-1.42-1.62a1.6,1.6,0,0,0-1.79,1.59H196l0-.17c.2-1.75,1.12-3.27,4.08-3.27s4,1.46,3.72,3.67l-.46,3.51-.18,2.74h-2.1ZM201,29.9l.26-1.88-2.14.33c-.86.13-1.44.51-1.53,1.26l0,.17c-.08.6.29,1.18,1.18,1.18A2.86,2.86,0,0,0,201,29.9Z"/><path class="i" d="M211.82,23l-.27,2.08h-2.69l-.54,4.17c-.17,1.29.51,1.6,1.37,1.6a3.32,3.32,0,0,0,.94-.14l-.25,2a3.45,3.45,0,0,1-1.41.24c-2,0-3.39-.9-3.06-3.36l.58-4.48H205l.27-2.08h1.48l.37-2.74h2.37L209.14,23Z"/><path class="i" d="M213.47,23h2.37l-1.26,9.68h-2.37Zm2.7-1.68h-2.59l.34-2.57h2.6Z"/><path class="i" d="M217,23h2.45l1.15,7.71L223.79,23h2.52l-4.26,9.68h-3.29Z"/><path class="i" d="M231.64,31.57a3.72,3.72,0,0,1-3.16,1.35A2.51,2.51,0,0,1,225.72,30l0-.17c.24-2.08,1.63-2.74,3.67-3l2.61-.4,0-.15c.15-1.15-.18-1.62-1.42-1.62a1.6,1.6,0,0,0-1.79,1.59h-2.27l0-.17c.2-1.75,1.12-3.27,4.07-3.27s4,1.46,3.73,3.67l-.46,3.51-.18,2.74h-2.1Zm-.09-1.67L231.8,28l-2.13.33c-.86.13-1.44.51-1.54,1.26v.17c-.08.6.29,1.18,1.18,1.18A2.86,2.86,0,0,0,231.55,29.9Z"/><path class="h" d="M239.37,28l0-.4c.39-2.81,1.66-4.82,4.28-4.82a3,3,0,0,1,2.64,1.39l.81-6.12h1.28l-1.57,12-.24,2.63h-1.1V31.46a3.57,3.57,0,0,1-2.9,1.42C240,32.88,239,30.78,239.37,28Zm1.35-.44-.06.41c-.31,2.32.46,3.74,2.27,3.74a3.16,3.16,0,0,0,2.61-1.39l.62-4.8a2.52,2.52,0,0,0-2.3-1.59C242,24,241,25.34,240.72,27.58Z"/><path class="h" d="M250.31,28.37c-.22,2.1.49,3.36,2.59,3.36a2.54,2.54,0,0,0,2.85-2.15H257l0,.23a3.84,3.84,0,0,1-4.07,3.07c-3.24,0-4.19-2.17-3.82-4.86l0-.4c.39-2.77,1.87-4.82,4.6-4.82,2.95,0,3.9,2,3.53,4.86l-.09.71Zm.13-1.06H256c.29-2.14-.42-3.36-2.29-3.36S250.71,25.34,250.44,27.31Z"/><path class="h" d="M264,18.07h1.28l-1.92,14.61h-1.28Z"/><path class="h" d="M271.75,31.33a4.38,4.38,0,0,1-3.45,1.55c-1.85,0-2.85-1.11-2.65-2.67l0-.29c.25-2,1.68-2.52,3.52-2.81l3-.48.05-.4c.22-1.55-.24-2.35-2-2.35a2.28,2.28,0,0,0-2.5,2.32h-1.22l0-.24a3.4,3.4,0,0,1,3.73-3.16c2.77,0,3.5,1.44,3.21,3.6l-.47,3.54-.24,2.74h-1.06Zm0-1.13.33-2.56-2.85.46c-1.31.2-2.08.75-2.23,1.75l0,.26c-.13.85.38,1.66,1.62,1.66A3.79,3.79,0,0,0,271.75,30.2Z"/><path class="h" d="M284.72,31A3.5,3.5,0,0,1,282,32.19c-2.7,0-3.61-2-3.27-4.53l.06-.4c.35-2.62,1.61-4.46,4.22-4.46a3,3,0,0,1,2.77,1.61l.35-1.41h1.06l-.46,2.74-.93,7.09a3.78,3.78,0,0,1-4.15,3.7c-2.83,0-3.72-1.62-3.41-3.61l0-.24h1.18c-.29,1.83.42,2.7,2.19,2.7,2,0,2.67-.91,2.89-2.64Zm.73-5.44a2.48,2.48,0,0,0-2.3-1.57c-1.83,0-2.81,1.17-3.1,3.27l-.06.4c-.29,2.1.44,3.42,2.3,3.42a3.16,3.16,0,0,0,2.61-1.41Z"/><path class="h" d="M289.56,28.37c-.22,2.1.49,3.36,2.59,3.36,1.94,0,2.71-1.11,2.85-2.15h1.23l0,.23a3.84,3.84,0,0,1-4.07,3.07c-3.24,0-4.18-2.17-3.82-4.86l.06-.4c.38-2.77,1.86-4.82,4.6-4.82,2.94,0,3.89,2,3.52,4.86l-.09.71Zm.13-1.06h5.55c.29-2.14-.42-3.36-2.28-3.36S290,25.34,289.69,27.31Z"/><path class="h" d="M303.75,32.68l.88-6.59c.2-1.46-.53-2.14-1.9-2.14A3.45,3.45,0,0,0,300,25.47L299,32.68h-1.27l.93-7,.23-2.63H300v1.35a3.82,3.82,0,0,1,3.18-1.55,2.49,2.49,0,0,1,2.75,3.1L305,32.68Z"/><path class="h" d="M313.49,23l-.15,1.15h-3.07l-.75,5.7c-.2,1.53.48,1.88,1.45,1.88a4.71,4.71,0,0,0,1.22-.16L312,32.68a3.63,3.63,0,0,1-1.25.2c-1.76,0-2.84-.82-2.56-2.9l.76-5.83h-1.53l.15-1.15h1.53l.37-2.74h1.28L310.42,23Z"/><path class="h" d="M315.68,28.37c-.22,2.1.49,3.36,2.59,3.36,1.94,0,2.71-1.11,2.85-2.15h1.23l0,.23a3.84,3.84,0,0,1-4.07,3.07c-3.24,0-4.19-2.17-3.82-4.86l.05-.4c.39-2.77,1.87-4.82,4.61-4.82,2.94,0,3.89,2,3.52,4.86l-.09.71Zm.13-1.06h5.55c.29-2.14-.42-3.36-2.28-3.36S316.08,25.34,315.81,27.31Z"/><path class="i" d="M127.67,47.66l0,.41c-.39,2.79-1.61,4.85-4.15,4.85a2.91,2.91,0,0,1-2.55-1.18l-.61,4.6h-2.37l1.4-10.59.19-2.74h2.1v1.26a3.62,3.62,0,0,1,2.94-1.5C127,42.77,128.06,44.81,127.67,47.66Zm-2.41.42.06-.4c.23-1.72-.31-2.85-1.67-2.85a2.58,2.58,0,0,0-2,1.08l-.49,3.8a1.9,1.9,0,0,0,1.73,1.15C124.26,50.86,125,49.8,125.26,48.08Z"/><path class="i" d="M134.39,51.57a3.7,3.7,0,0,1-3.16,1.35A2.5,2.5,0,0,1,128.48,50l0-.16c.23-2.09,1.62-2.74,3.67-3.05l2.61-.4,0-.15c.14-1.15-.19-1.63-1.43-1.63a1.6,1.6,0,0,0-1.79,1.59h-2.26l0-.16c.2-1.76,1.11-3.27,4.07-3.27s4,1.46,3.72,3.67L136.68,50l-.19,2.74h-2.1Zm-.09-1.66.26-1.88-2.14.33c-.86.13-1.44.51-1.53,1.26l0,.16A1.05,1.05,0,0,0,132.06,51,2.82,2.82,0,0,0,134.3,49.91Z"/><path class="i" d="M144.51,42.79l-.31,2.41h-.42a3,3,0,0,0-2.37,1l-.84,6.47h-2.38l.92-6.94.18-2.74h2.1v1.22a3.45,3.45,0,0,1,2.85-1.46Z"/><path class="i" d="M150.14,51.57A3.7,3.7,0,0,1,147,52.92,2.51,2.51,0,0,1,144.22,50l0-.16c.24-2.09,1.63-2.74,3.67-3.05l2.61-.4,0-.15c.15-1.15-.18-1.63-1.42-1.63a1.6,1.6,0,0,0-1.79,1.59h-2.27l0-.16c.2-1.76,1.12-3.27,4.07-3.27s4,1.46,3.73,3.67L152.42,50l-.18,2.74h-2.1Zm-.09-1.66L150.3,48l-2.13.33c-.86.13-1.45.51-1.54,1.26v.16A1,1,0,0,0,147.8,51,2.86,2.86,0,0,0,150.05,49.91Z"/><path class="i" d="M159.36,38.08h2.38l-1.92,14.61h-2.37Z"/><path class="i" d="M167.64,51.57a3.72,3.72,0,0,1-3.16,1.35A2.51,2.51,0,0,1,161.72,50l0-.16c.24-2.09,1.63-2.74,3.67-3.05l2.61-.4,0-.15c.15-1.15-.18-1.63-1.42-1.63a1.6,1.6,0,0,0-1.79,1.59h-2.27l0-.16c.2-1.76,1.11-3.27,4.07-3.27s4,1.46,3.73,3.67L169.92,50l-.18,2.74h-2.1Zm-.09-1.66L167.8,48l-2.13.33c-.86.13-1.45.51-1.54,1.26l0,.16A1.06,1.06,0,0,0,165.3,51,2.86,2.86,0,0,0,167.55,49.91Z"/><path class="i" d="M180.93,51.21a3.62,3.62,0,0,1-2.61,1.09c-2.33,0-3.48-2-3.14-4.58l.06-.4c.36-2.69,1.7-4.55,4.11-4.55a2.87,2.87,0,0,1,2.74,1.5l.34-1.26h2.1L184,45.75l-.91,7c-.33,2.52-1.66,3.83-4.49,3.83-3.2,0-4.22-1.66-4-3.48l.06-.4h2.23c-.15,1.22.34,1.93,1.68,1.93s1.95-.62,2.13-2Zm.7-5.23a1.9,1.9,0,0,0-1.74-1.15c-1.35,0-2.08.9-2.3,2.47l-.05.4c-.22,1.57.35,2.54,1.7,2.54a2.58,2.58,0,0,0,2-1.08Z"/><path class="i" d="M187.47,48.72c-.12,1.57.63,2.36,2,2.36a1.84,1.84,0,0,0,2.06-1.5h2.25l0,.17c-.2,1.77-1.65,3.17-4.35,3.17-3.3,0-4.55-2.17-4.18-4.89l.05-.4c.37-2.71,1.83-4.86,4.79-4.86s4.34,2.1,3.94,5l-.13.91Zm.22-1.75h4.06c.16-1.44-.46-2.36-1.77-2.36S188,45.47,187.69,47Z"/><path class="i" d="M200.83,52.69l.82-6.25a1.28,1.28,0,0,0-1.41-1.61A2.52,2.52,0,0,0,198.18,46l-.88,6.71h-2.37l.91-6.94L196,43h2.1v1.26a3.82,3.82,0,0,1,3.18-1.5c2.19,0,3,1.42,2.76,3.36l-.86,6.56Z"/><path class="i" d="M212,43l-.28,2.08H209l-.55,4.16c-.16,1.3.51,1.61,1.37,1.61a3,3,0,0,0,.95-.15l-.25,2a3.62,3.62,0,0,1-1.41.23c-2,0-3.4-.89-3.07-3.36l.59-4.47h-1.48l.27-2.08h1.48l.36-2.74h2.38L209.28,43Z"/><path class="i" d="M214.78,48.72c-.13,1.57.62,2.36,2,2.36a1.85,1.85,0,0,0,2.07-1.5h2.24l0,.17c-.2,1.77-1.64,3.17-4.34,3.17-3.31,0-4.55-2.17-4.18-4.89l.05-.4c.37-2.71,1.83-4.86,4.78-4.86s4.35,2.1,3.95,5l-.13.91ZM215,47h4.06c.16-1.44-.46-2.36-1.78-2.36S215.26,45.47,215,47Z"/></g></svg>