<?xml version="1.0" encoding="UTF-8"?>
<svg id="Layer_2" data-name="Layer 2" xmlns="http://www.w3.org/2000/svg" width="352.45" height="126.58" viewBox="0 0 352.45 126.58">
  <defs>
    <style>
      .cls-1 {
        fill: #00c1de;
      }

      .cls-2 {
        fill: #636569;
      }
    </style>
  </defs>
  <g id="Layer_1-2" data-name="Layer 1">
    <g>
      <g>
        <path class="cls-1" d="M63.47,17.29c13.01,0,22.76,1.87,26.86,2.74,6.32,8.41,10.07,18.86,10.07,30.19,0,6.7-1.32,13.09-3.7,18.93-5.65-15.78-21.6-19.79-34.94-23.13-11.05-2.77-19.61-5.24-19.61-13.87,0-13.1,15.8-14.86,21.32-14.86ZM50.2,100.48c7.43,0,14.48-1.63,20.82-4.53,3.21-3.86,4.09-8.5,4.09-12.29,0-12.21-12.17-15.26-24.48-18.49-15.57-4.08-33.23-8.72-33.23-32.17,0-3.05.99-26.52,29.84-32.92C20.89,1.61,0,23.48,0,50.23s22.48,50.25,50.2,50.25Z"/>
        <g>
          <path class="cls-1" d="M277.45,22.78c-.54-1.98-1.42-3.77-2.62-5.37-1.2-1.6-2.79-2.9-4.77-3.89-1.98-.99-4.38-1.49-7.21-1.49s-5.15.52-7.11,1.56c-1.96,1.04-3.55,2.37-4.77,4-1.23,1.63-2.12,3.43-2.69,5.41-.57,1.98-.85,3.91-.85,5.8,0,.66.04,1.31.1,1.95-1.42,3.17-4.58,8.31-10.18,8.31-2.69,0-8.56-2.06-8.56-10.18,0-9.46,7.49-10.32,9.13-10.32,3.83,0,5.48.79,7.01,1.83v-6.84c-.82-.55-3.53-1.52-7.26-1.52-16.1,0-16.89,14.32-16.89,16.85,0,.99.09,3.52,1,6.31-.75,1.51-2.03,2.78-4.12,2.37-1.81-.36-2.09-2.06-2.09-3.88v-11.46c0-1.65-.31-3.09-.85-4.31-.54-1.23-1.27-2.23-2.19-3.01-.92-.78-1.99-1.35-3.22-1.73-1.23-.38-2.52-.57-3.89-.57-1.56,0-2.89.19-4,.57-1.11.38-2.04.8-2.79,1.27-.85.52-1.56,1.11-2.12,1.77-.14.19-.24.28-.28.28s-.07-.07-.07-.21v-2.97h-7.14v23.78c-.85.45-1.65.69-2.39.69s-1.3-.15-1.77-.46c-.47-.31-.82-.67-1.06-1.1-.24-.42-.4-.88-.5-1.38-.09-.49-.14-.93-.14-1.31V13.37c-1.18-.28-2.23-.51-3.15-.67-.92-.16-1.94-.32-3.08-.46-1.13-.14-2.24-.21-3.32-.21-3.63,0-6.68.58-9.16,1.73-2.48,1.16-4.47,2.64-5.98,4.46-1.51,1.81-2.58,3.87-3.22,6.15-.64,2.29-.95,4.56-.95,6.82,0,.57.05,1.32.14,2.26.09.94.28,1.96.57,3.04.28,1.08.68,2.18,1.2,3.29.52,1.11,1.22,2.1,2.12,2.97.9.87,2,1.59,3.32,2.16,1.32.57,2.9.85,4.74.85,2.12,0,4.11-.48,5.98-1.41,2.98-1.49,4.49-4.24,4.49-4.24.78,1.88,2.21,5.22,9.18,5.22,5.29,0,10.54-2.23,10.54-2.23v-15.22c0-1.08.15-2.12.46-3.11.31-.99.74-1.86,1.31-2.62.57-.75,1.27-1.35,2.12-1.8.85-.45,1.81-.67,2.9-.67.28,0,.68.05,1.2.14.52.1,1.04.31,1.56.64.52.33.97.8,1.34,1.41.38.61.57,1.44.57,2.48v12.23c0,4.3,2.56,8.7,7.69,8.7,4.55,0,7.35-2.45,8.99-4.76,2.43,2.83,6.35,5.03,12.69,5.03,6.94,0,10.94-3.37,13.02-6.04.18.26.35.52.54.77,1.22,1.58,2.82,2.85,4.77,3.82,1.95.97,4.32,1.45,7.11,1.45s5.15-.52,7.11-1.56c1.96-1.04,3.55-2.36,4.77-3.96,1.23-1.6,2.12-3.39,2.69-5.37.57-1.98.85-3.94.85-5.87s-.27-4.03-.81-6.01ZM175.67,30.41c0,.9-.17,1.8-.49,2.72-.33.92-.81,1.76-1.45,2.51-.64.75-1.43,1.37-2.37,1.84-.94.47-2,.71-3.18.71-1.46,0-2.59-.33-3.4-.99-.8-.66-1.39-1.44-1.77-2.33-.38-.89-.6-1.79-.67-2.69-.07-.9-.11-1.58-.11-2.05,0-2.26.35-4.15,1.06-5.66.71-1.51,1.57-2.7,2.58-3.57,1.01-.87,2.1-1.5,3.25-1.87,1.15-.38,2.16-.57,3-.57.66,0,1.2.02,1.63.07.42.05.78.1,1.06.14l.85.21v11.53ZM269.92,32.29c-.24,1.2-.64,2.32-1.2,3.36-.57,1.04-1.33,1.89-2.3,2.55-.97.66-2.16.99-3.57.99s-2.68-.33-3.64-.99c-.97-.66-1.73-1.51-2.3-2.55-.57-1.04-.97-2.16-1.2-3.36-.24-1.2-.35-2.37-.35-3.5s.12-2.24.35-3.47c.23-1.23.64-2.34,1.2-3.36.57-1.01,1.33-1.85,2.3-2.51.97-.66,2.18-.99,3.64-.99s2.6.33,3.57.99c.97.66,1.73,1.5,2.3,2.51.57,1.01.97,2.13,1.2,3.36.23,1.23.35,2.38.35,3.47s-.12,2.3-.35,3.5ZM151.82,26.99c-.8-1.5-1.79-2.74-2.98-3.71-1.06-.79-2.26-1.46-3.54-2.01.33-.21.66-.42.97-.65,1.08-.87,1.98-1.98,2.7-3.32.72-1.35,1.08-2.97,1.08-4.88-.34-10.71-12.37-14.25-26.62-11.55-1.01.19-1.83.44-2.45.72v42.95c.69.3,1.59.57,2.7.8,14.53,2.7,28.95-.94,29.32-12.89,0-2.13-.4-3.94-1.19-5.45ZM129.15,6.42c.32-.09.65-.17,1.02-.23,5.13-.85,10.84,1.08,11.67,4.79.43,1.91.42,3.74-.89,5.35-1.47,1.8-3.8,2.54-6.1,2.75-1.94.18-3.78-.02-5.7-.15V6.42ZM143.98,34.55c-.96,4.15-7.62,6.3-13.62,5.36-.43-.07-.84-.16-1.22-.26v-13.99c.54-.03,1.08-.09,1.62-.16,9.56-1.19,15.06,3.2,13.21,9.05Z"/>
          <path class="cls-1" d="M137.71,73.2c-4.1-1.03-7.28-1.94-7.28-5.15,0-4.86,5.87-5.51,7.92-5.51,5.33,0,9.2.85,10.38,1.11v-7.27c-.9-.19-4.33-.83-10.47-.83-16.54,0-17.02,11.5-17.02,12.82,0,8.7,6.56,10.42,12.34,11.94,4.57,1.2,9.09,2.33,9.09,6.86,0,2.99-1.48,7.43-9.68,7.43-2.02,0-3.32-.15-4.31-.35-1.95-.35-5.26-1.27-8.5-2.38v7.86c.74.37,4.21,1.85,13.22,1.85,16.78,0,18.08-11.34,18.08-14.81,0-10.11-7.62-12.03-13.76-13.56ZM168.73,67.51c-11.09,0-15.4,9.18-15.4,16.75,0,8.26,4.24,16.73,15.4,16.73s15.4-9.11,15.4-16.73c0-8.06-4.01-16.75-15.4-16.75ZM168.73,94.65c-5.79,0-7.49-5.94-7.49-10.39s1.7-10.31,7.49-10.31,7.42,5.92,7.42,10.31-1.69,10.39-7.42,10.39ZM336.87,67.51c-11.1,0-15.41,9.18-15.41,16.75,0,1.49.14,2.98.43,4.43-.86,3.55-2.74,4.39-4.08,4.39-2.76,0-2.83-2.76-2.83-3.39v-20.91h-7.54v9.24c.01,4.66.05,13.38.05,14.01,0,4.45,2.4,8.7,7.65,8.7s8.23-3.34,9.38-5.63c2.42,3.5,6.41,5.9,12.36,5.9,11.08,0,15.39-9.11,15.39-16.73,0-8.06-4.02-16.75-15.39-16.75ZM336.87,94.65c-5.8,0-7.49-5.94-7.49-10.39s1.69-10.31,7.49-10.31,7.4,5.92,7.4,10.31-1.69,10.39-7.4,10.39ZM205.79,64.97c2.54,0,4.66-2.13,4.66-4.74s-2.12-4.66-4.66-4.66-4.73,2.11-4.73,4.66,2.12,4.74,4.73,4.74ZM311.1,64.97c2.54,0,4.66-2.13,4.66-4.74s-2.12-4.66-4.66-4.66-4.73,2.11-4.73,4.66,2.12,4.74,4.73,4.74ZM291.9,74.71c-.13.21-.21.28-.28.28-.13,0-.13-.28-.13-.28v-5.93h-7.14v23.78c-.83.48-1.67.66-2.39.66-2.9,0-3.46-2.75-3.46-4.23v-20.13c0-.07-5.23-1.35-9.54-1.35-14.56,0-19.29,10.1-19.29,19.14,0,.89.07,2.28.36,3.87-.95,1.96-2.29,2.56-3.33,2.56-2.76,0-2.83-2.9-2.83-3.52v-33.38h-7.48v11.42c-.7,0-1.4-.08-2.06-.08-14.55,0-19.29,10.1-19.29,19.14,0,1.06.12,2.72.55,4.54-.94,1.48-2.15,1.89-3.09,1.89-2.76,0-2.81-2.76-2.81-3.39v-20.91h-7.58v6.64c0,1.66.06,10.32.08,14.45-1.35,2.56-3.32,3.21-4.8,3.21-2.9,0-3.47-2.67-3.47-4.22v-32.68h-7.56v35.78c0,4.68,3.39,8.69,8.9,8.69,3.83,0,6.53-1.58,8.26-3.35,1.22,2.03,3.28,3.44,6.28,3.44,4.11,0,6.78-1.99,8.32-3.95,1.84,2.4,4.74,4.22,9.28,4.22,4.24,0,8.04-1.76,10.17-5.36,0,0,1.21,5.09,6.51,5.09,4.17,0,6.8-2.13,8.26-4.19,1.76,2.61,4.66,4.67,9.4,4.67,4.23,0,8.31-1.89,10.45-5.66,1.12,3.31,3.82,4.84,7.63,5.17,5.89.48,12.07-2.18,12.07-2.18v-10.19c0-1.41.23-5.31,2.48-8.5.26-.36.53-.69.81-1.03,0,0,.22-.3.73-.72.04-.04.1-.08.16-.12,1.38-1.15,2.86-3.02,8.83-2.16v-7.05c-11.13-1.26-12.86,5.72-13.01,5.95ZM236.39,85.88c0,3.61-2.69,7.7-7.49,7.7-5.86,0-5.93-6.14-5.93-7.99,0-9.04,6.41-11.64,9.88-11.64,2.55,0,3.54.4,3.54.4v11.53ZM271,85.88c0,3.61-2.68,7.77-7.5,7.77-5.86,0-5.91-6.21-5.91-8.05,0-9.04,6.42-11.64,9.89-11.64,2.53,0,3.53.4,3.53.4v11.53Z"/>
        </g>
      </g>
      <g>
        <path class="cls-2" d="M281.39,123.29c-.88,0-1.69-.16-2.44-.48-.75-.32-1.4-.76-1.94-1.3-.54-.55-.96-1.19-1.27-1.93-.31-.74-.46-1.52-.46-2.35v-.04c0-.83.15-1.62.46-2.36.31-.74.73-1.39,1.27-1.95.54-.55,1.19-.99,1.94-1.31.75-.32,1.58-.48,2.48-.48,1.11,0,2.03.18,2.76.53.73.35,1.37.83,1.93,1.45l-2.04,2.19c-.38-.39-.77-.71-1.17-.94-.4-.23-.9-.35-1.5-.35-.42,0-.81.08-1.15.25-.34.17-.64.4-.9.69-.26.29-.45.63-.59,1.02-.14.39-.21.8-.21,1.24v.04c0,.45.07.88.21,1.27.14.39.34.74.6,1.03.26.29.58.52.94.69.37.17.77.25,1.23.25.55,0,1.04-.11,1.46-.34.42-.23.83-.53,1.24-.91l1.95,1.97c-.57.63-1.22,1.14-1.95,1.54-.73.4-1.68.6-2.85.6Z"/>
        <path class="cls-2" d="M292.64,123.29c-.9,0-1.74-.16-2.52-.47s-1.44-.74-2-1.29c-.56-.55-1-1.19-1.32-1.93-.32-.74-.48-1.53-.48-2.38v-.04c0-.85.16-1.64.48-2.38.32-.74.77-1.38,1.34-1.94.57-.55,1.24-.99,2.01-1.31.77-.32,1.62-.48,2.54-.48s1.74.16,2.52.47c.77.31,1.44.74,2,1.29.56.55,1,1.19,1.33,1.93.32.74.48,1.53.48,2.38v.04c0,.85-.16,1.64-.48,2.38-.32.74-.77,1.38-1.34,1.94-.57.55-1.24.99-2.01,1.31-.77.32-1.62.48-2.54.48ZM292.68,120.42c.48,0,.91-.08,1.28-.25.37-.17.69-.4.95-.69.26-.29.46-.63.6-1.02.14-.39.21-.8.21-1.24v-.04c0-.44-.07-.85-.22-1.24-.15-.39-.36-.73-.64-1.03-.28-.3-.61-.54-.99-.71-.38-.18-.8-.26-1.25-.26-.48,0-.91.08-1.28.25-.37.17-.69.4-.95.69-.26.29-.46.63-.6,1.02-.14.39-.21.8-.21,1.24v.04c0,.44.07.85.22,1.24.15.39.36.73.63,1.03.28.3.6.54.97.71.37.18.79.26,1.26.26Z"/>
        <path class="cls-2" d="M300.4,111.29h3.33v1.68c.19-.25.4-.49.62-.72.23-.23.48-.43.76-.61.28-.18.58-.32.92-.42.34-.1.72-.15,1.14-.15,1.27,0,2.25.39,2.94,1.16.69.77,1.04,1.84,1.04,3.2v7.6h-3.33v-6.53c0-.79-.18-1.38-.53-1.78-.35-.4-.85-.6-1.49-.6s-1.15.2-1.52.6c-.37.4-.56.99-.56,1.78v6.53h-3.33v-11.73Z"/>
        <path class="cls-2" d="M316.93,123.23c-.51,0-.97-.05-1.39-.16-.42-.11-.77-.3-1.07-.58-.3-.28-.53-.64-.7-1.08-.17-.45-.25-1.01-.25-1.7v-5.56h-1.4v-2.85h1.4v-3h3.33v3h2.76v2.85h-2.76v5.03c0,.76.36,1.14,1.07,1.14.58,0,1.13-.15,1.64-.44v2.67c-.35.2-.74.37-1.16.49-.42.12-.91.19-1.47.19Z"/>
        <path class="cls-2" d="M321.15,107.05h3.5v2.96h-3.5v-2.96ZM321.24,111.29h3.33v11.73h-3.33v-11.73Z"/>
        <path class="cls-2" d="M331.82,126.58c-.96,0-1.88-.11-2.76-.32-.88-.21-1.69-.51-2.43-.91l1.14-2.5c.61.34,1.23.6,1.85.79.62.19,1.32.28,2.11.28,1.14,0,1.98-.27,2.53-.81.55-.54.82-1.34.82-2.39v-.57c-.5.6-1.04,1.07-1.62,1.4-.58.34-1.32.5-2.21.5-.69,0-1.34-.12-1.97-.36-.63-.24-1.18-.59-1.66-1.06s-.86-1.04-1.15-1.72c-.28-.68-.43-1.46-.43-2.33v-.04c0-.88.15-1.65.44-2.33.29-.68.68-1.25,1.16-1.72.48-.47,1.04-.82,1.66-1.06.63-.24,1.28-.36,1.95-.36.9,0,1.65.17,2.23.5.58.34,1.1.75,1.55,1.25v-1.53h3.33v9.09c0,2.09-.5,3.63-1.49,4.62-.55.55-1.25.96-2.09,1.2-.84.25-1.83.37-2.97.37ZM332.21,119.31c.41,0,.79-.07,1.14-.2.35-.13.65-.32.91-.56.26-.24.46-.53.6-.86s.22-.7.22-1.09v-.04c0-.39-.07-.76-.22-1.09-.15-.34-.35-.62-.6-.86-.25-.24-.56-.43-.91-.56-.35-.13-.73-.2-1.14-.2s-.78.07-1.13.2c-.34.13-.64.32-.9.56-.26.24-.46.53-.6.86-.15.34-.22.7-.22,1.09v.04c0,.82.27,1.47.81,1.97.54.5,1.22.74,2.04.74Z"/>
        <path class="cls-2" d="M346.08,123.29c-.9,0-1.74-.16-2.52-.47-.77-.31-1.44-.74-2-1.29-.56-.55-1-1.19-1.32-1.93-.32-.74-.48-1.53-.48-2.38v-.04c0-.85.16-1.64.48-2.38.32-.74.77-1.38,1.34-1.94.57-.55,1.24-.99,2.01-1.31.77-.32,1.62-.48,2.54-.48s1.74.16,2.52.47c.77.31,1.44.74,2,1.29.56.55,1,1.19,1.33,1.93.32.74.48,1.53.48,2.38v.04c0,.85-.16,1.64-.48,2.38-.32.74-.77,1.38-1.34,1.94-.57.55-1.24.99-2.01,1.31-.77.32-1.62.48-2.54.48ZM346.12,120.42c.48,0,.91-.08,1.28-.25.37-.17.69-.4.95-.69.26-.29.46-.63.6-1.02.14-.39.21-.8.21-1.24v-.04c0-.44-.07-.85-.22-1.24-.15-.39-.36-.73-.64-1.03-.28-.3-.61-.54-.99-.71-.38-.18-.8-.26-1.25-.26-.48,0-.91.08-1.28.25-.37.17-.69.4-.95.69-.26.29-.46.63-.6,1.02-.14.39-.21.8-.21,1.24v.04c0,.44.07.85.22,1.24.15.39.36.73.63,1.03.28.3.6.54.97.71s.79.26,1.26.26Z"/>
      </g>
    </g>
  </g>
</svg>